<?xml version="1.0" encoding="UTF-8" standalone="no"?>
<svg
   xmlns:dc="http://purl.org/dc/elements/1.1/"
   xmlns:cc="http://creativecommons.org/ns#"
   xmlns:rdf="http://www.w3.org/1999/02/22-rdf-syntax-ns#"
   xmlns:svg="http://www.w3.org/2000/svg"
   xmlns="http://www.w3.org/2000/svg"
   xmlns:sodipodi="http://sodipodi.sourceforge.net/DTD/sodipodi-0.dtd"
   xmlns:inkscape="http://www.inkscape.org/namespaces/inkscape"
   width="67.595139mm"
   height="51.889278mm"
   viewBox="0 0 67.595139 51.889278"
   version="1.1"
   id="svg151"
   inkscape:version="1.0.1 (0767f8302a, 2020-10-17)"
   sodipodi:docname="MS_coronal_clean.svg">
  <defs
     id="defs145">
    <inkscape:path-effect
       effect="bspline"
       id="path-effect4697-4"
       is_visible="true"
       weight="33.333333"
       steps="2"
       helper_size="0"
       apply_no_weight="true"
       apply_with_weight="true"
       only_selected="false"
       lpeversion="0" />
    <inkscape:path-effect
       effect="bspline"
       id="path-effect4701"
       is_visible="true"
       weight="33.333333"
       steps="2"
       helper_size="0"
       apply_no_weight="true"
       apply_with_weight="true"
       only_selected="false"
       lpeversion="0" />
    <inkscape:path-effect
       effect="bspline"
       id="path-effect5265"
       is_visible="true"
       weight="33.333333"
       steps="2"
       helper_size="0"
       apply_no_weight="true"
       apply_with_weight="true"
       only_selected="false"
       lpeversion="0" />
    <inkscape:path-effect
       effect="bspline"
       id="path-effect5269"
       is_visible="true"
       weight="33.333333"
       steps="2"
       helper_size="0"
       apply_no_weight="true"
       apply_with_weight="true"
       only_selected="false"
       lpeversion="0" />
    <inkscape:path-effect
       effect="bspline"
       id="path-effect5273"
       is_visible="true"
       weight="33.333333"
       steps="2"
       helper_size="0"
       apply_no_weight="true"
       apply_with_weight="true"
       only_selected="false"
       lpeversion="0" />
  </defs>
  <sodipodi:namedview
     id="base"
     pagecolor="#ffffff"
     bordercolor="#666666"
     borderopacity="1.0"
     inkscape:pageopacity="0.0"
     inkscape:pageshadow="2"
     inkscape:zoom="0.35"
     inkscape:cx="390.39997"
     inkscape:cy="534.86259"
     inkscape:document-units="mm"
     inkscape:current-layer="layer1"
     inkscape:document-rotation="0"
     showgrid="false"
     fit-margin-top="0"
     fit-margin-left="0"
     fit-margin-right="0"
     fit-margin-bottom="0"
     inkscape:window-width="1860"
     inkscape:window-height="1016"
     inkscape:window-x="60"
     inkscape:window-y="27"
     inkscape:window-maximized="1" />
  <metadata
     id="metadata148">
    <rdf:RDF>
      <cc:Work
         rdf:about="">
        <dc:format>image/svg+xml</dc:format>
        <dc:type
           rdf:resource="http://purl.org/dc/dcmitype/StillImage" />
        <dc:title></dc:title>
      </cc:Work>
    </rdf:RDF>
  </metadata>
  <g
     inkscape:label="Layer 1"
     inkscape:groupmode="layer"
     id="layer1"
     transform="translate(-2.5400085,-6.6509403)">
    <g
       id="g1054"
       transform="translate(-63.003693,3.3059363)">
      <path
         style="fill:#ffffff;fill-opacity:0.878981;fill-rule:evenodd;stroke:#000000;stroke-width:0.265;stroke-linecap:butt;stroke-linejoin:miter;stroke-miterlimit:4;stroke-dasharray:none;stroke-opacity:1"
         d="m 69.031163,15.669551 c 0,0 0.743113,-1.184966 0.743113,-1.184966 0,0 1.164882,-1.265303 1.164882,-1.265303 0,0 0.602526,-0.662778 0.602526,-0.662778 0,0 0.763198,-0.622608 0.763198,-0.622608 0,0 0.903788,-0.743115 0.903788,-0.743115 0.261094,-0.194147 0.670532,-0.498601 0.784841,-0.579144 0.114309,-0.08054 1.078352,-0.7232368 1.207523,-0.8017564 0.129172,-0.078519 1.358389,-0.7578235 1.526898,-0.8418735 0.168509,-0.08405 1.184793,-0.5391033 1.341375,-0.6085715 0.156582,-0.069468 1.21817,-0.5361006 1.82739,-0.8038896 0,0 1.365724,-0.5221884 1.365724,-0.5221884 0.348126,-0.1338945 0.870763,-0.3349089 1.043766,-0.4045894 0.173004,-0.06968 1.272609,-0.5326713 1.908608,-0.8004599 0,0 1.184965,-0.4619359 1.184965,-0.4619359 0,0 1.727239,-0.7230304 1.727239,-0.7230304 0,0 2.189175,-0.5422725 2.189175,-0.5422725 0,0 1.988332,-0.4016834 1.988332,-0.4016834 0,0 2.048585,-0.220926 2.048585,-0.220926 0.448546,0.060253 1.246998,0.1675074 1.340565,0.1903751 0.09357,0.022868 1.06284,0.3786764 1.591723,0.5728233 0,0 1.164883,0.9439565 1.164883,0.9439565 0,0 0.964039,1.245218 0.964039,1.245218 0.2544,0.3749043 0.508752,0.749738 0.652685,0.9940377 0.143933,0.2442998 0.1774,0.3580889 0.318349,0.1902288 0.140949,-0.16786 0.388207,-0.6155927 0.726155,-1.0839955 0.33794,-0.4684028 0.76677,-0.9575338 1.26871,-1.3891656 0.50194,-0.4316318 1.07808,-0.8067932 1.58675,-1.0577395 0.50866,-0.2509462 0.95079,-0.3782258 1.60981,-0.4317349 0.65902,-0.053509 1.53678,-0.033408 2.69467,0.1406193 1.1579,0.1740272 2.59778,0.5021857 4.14744,0.9908543 1.54966,0.4886686 3.21022,1.1381621 4.77001,1.7741289 1.55979,0.6359669 3.01939,1.2586402 4.23246,1.8182466 1.21307,0.5596064 2.2012,1.0672082 3.02458,1.5491897 0.82338,0.4819812 1.49294,0.9439782 2.02684,1.3376042 0.5339,0.393626 0.93891,0.724377 1.43938,1.204679 0.50047,0.480301 1.10621,1.119697 1.69533,1.886212 0.58912,0.766515 1.16486,1.663596 1.61676,2.49374 0.4519,0.830145 0.77991,1.593275 1.06112,2.369915 0.2812,0.77664 0.51547,1.566459 0.72304,2.343134 0.20756,0.776676 0.38827,1.539675 0.55566,2.346506 0.1674,0.806831 0.32133,1.656806 0.39165,2.319616 0.0703,0.662811 0.0569,1.137996 0.0234,1.556527 -0.0335,0.418531 -0.087,0.779795 -0.22433,1.382727 -0.13732,0.602932 -0.35803,1.445634 -0.74308,2.677821 -0.38506,1.232186 -0.93378,2.851587 -1.40914,4.143782 -0.47536,1.292194 -0.87694,2.256002 -1.10121,2.784913 -0.22427,0.52891 -0.27111,0.622588 -0.32821,0.847591 -0.0571,0.225003 -0.12378,0.57838 -0.30461,0.997044 -0.18083,0.418664 -0.47509,0.900186 -0.85013,1.382416 -0.37504,0.482229 -0.82993,0.963879 -1.42266,1.559958 -0.59272,0.596079 -1.32195,1.305234 -1.70027,1.656889 -0.37832,0.351656 -0.40503,0.34498 -0.46104,0.383166 -0.056,0.03819 -0.78333,0.749227 -0.864,0.819477 -0.0807,0.07025 -0.54384,0.418555 -0.96037,0.744616 -0.41652,0.326061 -0.97814,0.774018 -1.34976,1.085359 -0.37162,0.31134 -0.55227,0.485299 -0.69634,0.646082 -0.14406,0.160782 -0.25098,0.307798 -0.43544,0.633094 -0.18445,0.325296 -0.44491,0.826176 -1.0531,1.685627 -0.6082,0.859452 -1.80477,2.383413 -2.73372,3.037797 -0.92895,0.654383 -1.98479,0.762622 -2.56166,0.81285 -0.57686,0.05023 -0.75086,0.05023 -1.08944,-5e-5 -0.33858,-0.05028 -0.83977,-0.150515 -1.24153,-0.230866 -0.40175,-0.08035 -0.70286,-0.140574 -1.06454,-0.200857 -0.36168,-0.06028 -0.7831,-0.120486 -1.30298,-0.177881 -0.51987,-0.05739 -1.78168,-0.16872 -2.33013,-0.318965 -0.54845,-0.150245 -1.33889,-0.560878 -1.80197,-0.842094 -0.46308,-0.281216 -0.75759,-0.515484 -1.07565,-0.873729 -0.31807,-0.358245 -0.65945,-0.840204 -0.87033,-1.131405 -0.21087,-0.291202 -0.29121,-0.391635 -0.39825,-0.48865 -0.10705,-0.09701 -0.24099,-0.190779 -0.40511,-0.378353 -0.16412,-0.187575 -0.35818,-0.468621 -0.59577,-0.722946 -0.23759,-0.254324 -0.51883,-0.481997 -0.88375,-0.850266 -0.36492,-0.36827 -0.813411,-0.877 -1.057688,-1.141395 -0.244276,-0.264394 -0.284457,-0.284483 -0.331275,-0.284557 -0.04682,-7.3e-5 -0.100213,0.01995 -0.245044,0.184967 -0.14483,0.165016 -0.377468,0.470768 -0.715771,0.815796 -0.338304,0.345029 -0.779647,0.726189 -1.054158,0.950519 -0.27451,0.224331 -0.38154,0.291225 -0.482214,0.418675 -0.100674,0.127449 -0.194075,0.314251 -0.328065,0.475116 -0.133991,0.160865 -0.307698,0.294487 -0.444056,0.393167 -0.136357,0.09868 -0.225139,0.155754 -0.358053,0.344518 -0.132913,0.188764 -0.309105,0.514039 -0.530187,0.831719 -0.221082,0.31768 -0.501862,0.6464 -0.850168,0.924421 -0.348305,0.27802 -0.769624,0.512086 -1.161425,0.713019 -0.3918,0.200933 -0.752992,0.368151 -1.051592,0.472142 -0.298599,0.103991 -4.34787,0.799857 -4.473945,0.819768 -0.126075,0.01991 -0.32269,0.01155 -0.580748,0.05958 -0.258057,0.04803 -0.665273,0.148165 -1.077216,0.198421 -0.411943,0.05026 -1.46287,0.05026 -1.842895,3.28e-4 -0.380025,-0.04993 -1.663479,-0.421777 -2.229926,-0.880587 -0.566447,-0.458809 -1.632461,-1.794286 -2.144723,-2.496189 -0.512261,-0.701903 -1.35993,-2.31342 -1.869043,-2.860156 -0.509113,-0.546736 -5.99429,-5.426858 -6.971102,-6.467594 -0.976812,-1.040737 -1.369963,-2.377349 -1.758266,-3.447073 -0.388303,-1.069723 -1.370476,-3.586098 -1.906041,-5.009779 -0.535566,-1.42368 -0.816768,-2.247199 -0.950611,-2.715898 -0.133844,-0.4687 -0.120451,-0.582536 -0.177212,-0.762798 -0.05676,-0.180263 -0.184352,-0.428729 -0.282414,-1.015545 -0.09806,-0.586816 -0.261362,-2.77893 -0.102667,-3.970105 0.158695,-1.191175 0.897142,-3.974799 1.31939,-5.380609 0.422248,-1.40581 0.702522,-2.09315 1.007079,-2.698871 0.304557,-0.60572 0.632782,-1.128199 0.796686,-1.389108 0.163904,-0.260908 0.163893,-0.260924 0.163893,-0.260924 z"
         id="path4695"
         inkscape:connector-curvature="0"
         inkscape:path-effect="#path-effect4697-4"
         inkscape:original-d="m 69.031163,15.669551 0.743113,-1.184966 1.164882,-1.265303 0.602526,-0.662778 0.763198,-0.622608 0.903788,-0.743115 c 0,0 0.682861,-0.482021 0.783282,-0.582441 0.100419,-0.100418 1.064461,-0.7431142 1.205051,-0.8033667 0.140588,-0.060249 1.345639,-0.783282 1.526396,-0.8435345 0.180758,-0.060249 1.184966,-0.5422733 1.345639,-0.6025258 0.160674,-0.060249 1.827659,-0.803367 1.827659,-0.803367 l 1.365724,-0.5221884 c 0,0 0.883704,-0.3012623 1.044377,-0.4016835 0.160674,-0.1004188 1.907997,-0.8033658 1.907997,-0.8033658 L 85.39976,5.3663724 87.126999,4.643342 89.316174,4.1010695 91.304506,3.6993861 93.353091,3.4784601 c 0,0 1.245218,0.1807576 1.345638,0.1807576 0.100419,0 1.58665,0.5824408 1.58665,0.5824408 l 1.164883,0.9439565 0.964039,1.245218 c 0,0 0.509117,0.7494904 0.7632,1.124713 0.0338,0.1135122 0.06726,0.2273033 0.100419,0.341431 0.248472,-0.4496781 0.495729,-0.897411 0.74312,-1.3456391 0.42841,-0.4886205 0.85724,-0.9777472 1.28538,-1.4661441 0.57567,-0.3749641 1.15181,-0.7501274 1.72724,-1.1247135 0.44189,-0.1274365 0.88402,-0.2547177 1.32556,-0.3815993 0.87657,0.019748 1.75433,0.03985 2.63102,0.060252 1.43917,0.3276074 2.87905,0.6557648 4.3181,0.9841246 1.66034,0.6489645 3.3209,1.2984582 4.98087,1.9481635 1.45962,0.6222285 2.91922,1.2449006 4.37835,1.8678288 0.96425,0.5017332 1.95518,1.0038895 2.93229,1.5063116 0.6697,0.4615615 1.33926,0.9235535 2.00841,1.3858085 0.40197,0.320997 0.80369,0.655765 1.20505,0.984124 0.5961,0.635625 1.20537,1.27168 1.80758,1.907997 0.57607,0.896786 1.15181,1.793866 1.72724,2.691277 0.32839,0.762949 0.6564,1.526079 0.98412,2.289596 0.23468,0.789817 0.46895,1.579636 0.70295,2.369932 0.18112,0.763079 0.36183,1.526078 0.54227,2.289595 0.15434,0.850168 0.30828,1.700142 0.46194,2.550689 -0.0131,0.475148 -0.0265,0.950333 -0.0402,1.425978 -0.0533,0.361445 -0.10681,0.722711 -0.16068,1.084544 -0.22082,0.844051 -0.44153,1.686752 -0.66277,2.530605 -0.5489,1.620526 -1.09762,3.239929 -1.64691,4.86037 -0.40146,0.963949 -0.80304,1.92776 -1.20505,2.892119 -0.0466,0.09344 -0.0934,0.187136 -0.14058,0.281177 -0.0669,0.355948 -0.13358,0.709324 -0.20085,1.064465 -0.29455,0.482195 -0.58881,0.963719 -0.8837,1.446057 -0.45527,0.482075 -0.91016,0.963724 -1.36572,1.446062 -0.72991,0.709801 -1.45913,1.418963 -2.18918,2.128921 -0.0265,-0.007 -0.0532,-0.01371 -0.0803,-0.02007 -0.0874,0.08069 -0.80997,0.796591 -0.89733,0.877246 -0.0764,0.05735 -0.53956,0.405673 -0.80982,0.608984 -0.56278,0.448819 -1.1244,0.896775 -1.68707,1.345638 -0.18055,0.173854 -0.3612,0.347811 -0.54227,0.52219 -0.107,0.14723 -0.21392,0.294248 -0.32135,0.441851 -0.26141,0.503014 -0.52187,1.003892 -0.78328,1.506313 -0.82376,1.319542 -2.28282,2.637403 -3.10659,3.95658 -0.90301,0.09229 -1.95885,0.200525 -2.93875,0.301263 -0.1738,-3.18e-4 -0.3478,-3.18e-4 -0.52219,0 -0.5027,-0.100923 -1.00389,-0.201158 -1.50631,-0.301263 -0.30109,-0.0606 -0.6022,-0.120821 -0.90379,-0.180758 -0.42179,-0.06062 -0.84321,-0.120819 -1.2653,-0.180757 -0.61599,-0.074 -1.88113,-0.147599 -2.50406,-0.220925 -0.47216,-0.245769 -1.2626,-0.6564 -1.89437,-0.984124 -0.29431,-0.234679 -0.58882,-0.468949 -0.88371,-0.702946 -0.34115,-0.482402 -0.68254,-0.964359 -1.02429,-1.446058 -0.08,-0.100731 -0.16035,-0.201162 -0.24101,-0.301263 -0.13352,-0.09401 -0.26747,-0.187772 -0.40168,-0.281181 -0.19392,-0.281629 -0.38798,-0.562673 -0.58244,-0.843535 -0.2808,-0.227883 -0.56204,-0.45556 -0.84354,-0.682861 -0.44829,-0.509184 -0.896773,-1.017917 -1.345636,-1.526395 -0.03984,-0.02039 -0.08002,-0.04048 -0.120506,-0.06025 -0.05341,0.01981 -0.106803,0.03984 -0.160672,0.06025 -0.235676,0.309843 -0.468313,0.615595 -0.702945,0.923869 -0.442044,0.381722 -0.883386,0.762884 -1.325556,1.144798 -0.106887,0.06668 -0.213915,0.133578 -0.321349,0.200844 -0.09373,0.187784 -0.187133,0.374585 -0.281178,0.562355 -0.174099,0.133851 -0.347807,0.267472 -0.522188,0.401686 -0.100311,0.06006 -0.187132,0.120185 -0.281178,0.180757 -0.174429,0.315575 -0.347807,0.642374 -0.522189,0.964037 -0.274487,0.308005 -0.54865,0.642377 -0.823449,0.964042 -0.421899,0.234245 -0.843217,0.468312 -1.265304,0.702946 -0.36152,0.167198 -0.722711,0.334417 -1.084543,0.502103 -0.234245,0.04659 -4.285718,0.729641 -4.520352,0.776822 -0.01636,-9.53e-4 -0.212972,-0.0094 -0.319935,-0.01361 -0.409223,0.100382 -0.816437,0.200522 -1.225134,0.301259 -0.415134,-3.17e-4 -1.466061,-3.17e-4 -1.881452,0 -0.33367,-0.137787 -1.644426,-0.4154 -2.149002,-0.622619 -0.614629,-0.764611 -1.677669,-2.102461 -2.516981,-3.153214 -0.19382,-0.34843 -1.024209,-1.969036 -1.218674,-2.316843 -0.856398,-0.714377 -6.27119,-5.67361 -8.134794,-7.237467 -0.312888,-0.41325 -0.472149,-1.818659 -0.708699,-2.409396 -0.597463,-1.531861 -1.579637,-4.048236 -2.369932,-6.071878 -0.280837,-0.823699 -0.562039,-1.647218 -0.843536,-2.470353 0.01371,-0.114101 0.0271,-0.227937 0.04017,-0.341431 -0.12649,-0.24726 -0.254082,-0.495725 -0.3816,-0.743112 -0.100053,-0.923736 -0.200523,-3.12053 -0.301262,-4.044085 0.386584,-1.456371 1.125032,-4.239995 1.68707,-6.359516 0.28814,-0.689751 0.562675,-1.379431 0.843535,-2.068669 0.328177,-0.522216 0.656401,-1.044695 0.984125,-1.566565 z" />
      <path
         style="fill:#126cbb;fill-opacity:1;fill-rule:evenodd;stroke:#000000;stroke-width:0.265;stroke-linecap:butt;stroke-linejoin:miter;stroke-miterlimit:4;stroke-dasharray:none;stroke-opacity:1"
         d="m 94.695419,48.801552 c 0.01677,-0.08721 0.05024,-0.261277 0.10714,-0.415118 0.0569,-0.15384 0.137404,-0.288019 0.253199,-0.457721 0.115794,-0.169702 2.146609,-2.929963 2.231529,-3.142943 0.08492,-0.21298 0.350879,-2.970035 0.420882,-3.879614 0.07,-0.909579 0.132464,-2.419039 0.231919,-3.18137 0.09945,-0.762331 0.360484,-1.955893 0.517788,-2.689948 0.157304,-0.734056 0.257762,-1.222955 0.33475,-1.557629 0.07699,-0.334675 0.130586,-0.515567 0.197496,-0.679433 0.06691,-0.163866 0.147414,-0.311461 0.233353,-0.356683 0.08594,-0.04522 0.168345,0.0055 0.271975,0.232775 0.103631,0.227286 0.224259,0.62938 0.368247,1.312461 0.143983,0.683081 0.311273,1.646629 0.445263,2.433877 0.134,0.787247 0.23422,1.395229 0.30118,1.867264 0.067,0.472036 0.10042,0.806636 0.12721,1.34251 0.0268,0.535875 0.0468,1.271675 0.11043,1.934603 0.0636,0.662928 0.17067,1.251816 0.24433,1.737251 0.0737,0.485435 0.1138,0.866876 0.25447,1.288892 0.14066,0.422016 0.38149,0.883611 0.80001,1.50301 0.41851,0.619398 1.01418,1.395782 1.32548,1.860969 0.31129,0.465188 0.33806,0.619162 0.31799,0.823492 -0.0201,0.204331 -0.0869,0.458319 -0.19401,0.622486 -0.10708,0.164168 -0.25415,0.237701 -0.42179,0.274617 -0.16764,0.03692 -0.35461,0.03692 -0.57586,-0.03682 -0.22125,-0.07374 -0.47522,-0.220772 -0.82344,-0.438409 -0.34822,-0.217637 -0.7899,-0.505398 -1.03764,-0.669441 -0.24774,-0.164043 -0.30125,-0.204177 -0.47212,-0.358298 -0.17087,-0.154121 -0.458477,-0.421657 -0.632509,-0.575617 -0.174033,-0.153959 -0.234282,-0.194125 -0.502224,-0.02334 -0.267942,0.170782 -0.742689,0.551917 -1.155633,0.865101 -0.412944,0.313185 -0.772006,0.563852 -1.073386,0.748052 -0.30138,0.184201 -0.54883,0.304582 -0.793844,0.381728 -0.245013,0.07715 -0.48474,0.110441 -0.682471,0.08365 -0.197732,-0.02679 -0.351484,-0.113692 -0.468755,-0.251103 -0.117271,-0.137411 -0.197554,-0.324738 -0.237689,-0.418387 -0.04013,-0.09365 -0.04004,-0.09365 -0.02327,-0.180862 z"
         id="path4699"
         inkscape:connector-curvature="0"
         inkscape:path-effect="#path-effect4701"
         inkscape:original-d="m 94.678647,48.888767 c 0.03379,-0.174382 0.06727,-0.348443 0.100418,-0.522189 0.08048,-0.133931 0.160993,-0.268106 0.241011,-0.401683 0.140513,-0.21395 2.190199,-2.960327 2.330469,-3.167546 0.0258,-0.22416 0.267637,-2.983542 0.400977,-4.156716 0.03439,-0.643736 0.08065,-2.153866 0.120505,-2.912206 0.167753,-0.76592 0.428781,-1.959482 0.642696,-2.938748 0.100695,-0.488848 0.201157,-0.977746 0.30126,-1.466144 0.05384,-0.180939 0.107428,-0.361834 0.160675,-0.542272 0.08048,-0.147295 0.160992,-0.294886 0.241007,-0.441853 0.09381,0.05311 0.174383,0.106803 0.261095,0.160675 0.1207,0.400955 0.24133,0.803049 0.361515,1.205049 0.167775,0.964213 0.335055,1.927761 0.502105,2.89212 0.10747,0.609064 0.20116,1.218121 0.30126,1.827659 0.0338,0.334559 0.0673,0.669155 0.10042,1.004209 0.0204,0.736724 0.0405,1.472523 0.0602,2.209259 0.10748,0.589064 0.21455,1.177952 0.32135,1.767407 0.0405,0.381445 0.0807,0.76288 0.1205,1.144798 0.24151,0.461957 0.48234,0.923555 0.72304,1.385807 0.5963,0.77647 1.19197,1.552856 1.78749,2.329765 0.0271,0.15367 0.0539,0.307638 0.0803,0.461934 -0.0667,0.254504 -0.13358,0.508482 -0.20085,0.763199 -0.14718,0.07344 -0.29425,0.146966 -0.44185,0.220925 -0.18762,-3.18e-4 -0.37459,-3.18e-4 -0.56235,0 -0.25452,-0.147851 -0.50849,-0.294884 -0.76321,-0.441851 -0.4417,-0.288304 -0.88338,-0.576063 -1.32555,-0.863619 -0.0533,-0.04049 -0.10679,-0.08065 -0.16067,-0.120506 -0.28783,-0.268359 -0.575431,-0.535896 -0.863622,-0.803366 -0.05994,-0.04048 -0.120186,-0.08065 -0.180758,-0.120506 -0.475585,0.381747 -0.950333,0.76288 -1.425975,1.144798 -0.348065,0.247569 -0.709321,0.495093 -1.064461,0.743116 -0.247641,0.120308 -0.495091,0.24069 -0.743114,0.361514 -0.241063,0.03991 -0.481703,0.06663 -0.72303,0.100418 -0.153889,-0.08747 -0.307638,-0.174379 -0.461937,-0.261093 -0.08007,-0.187897 -0.160354,-0.375223 -0.241009,-0.562355 z" />
      <path
         style="fill:#e0e0e0;fill-opacity:0.480892;fill-rule:evenodd;stroke:#000000;stroke-width:0.265;stroke-linecap:butt;stroke-linejoin:miter;stroke-miterlimit:4;stroke-dasharray:none;stroke-opacity:1"
         d="m 92.161429,36.54016 c 0.057,-0.117348 0.170808,-0.351664 0.267754,-0.699404 0.09695,-0.34774 0.177415,-0.810428 0.227598,-1.181864 0.05018,-0.371436 0.07028,-0.652834 0.04351,-0.987291 -0.02677,-0.334458 -0.100502,-0.72322 -0.127258,-1.185025 -0.02676,-0.461805 -0.0067,-0.997723 0.04021,-1.439489 0.04687,-0.441766 0.12056,-0.790105 0.207582,-1.081209 0.08702,-0.291104 0.18755,-0.525668 0.317961,-0.839996 0.130412,-0.314328 0.291348,-0.709962 0.579663,-1.15495 0.288315,-0.444988 0.716027,-0.954168 1.032367,-1.356849 0.31634,-0.402681 0.533854,-0.715359 0.691057,-1.0198 0.157204,-0.304441 0.257743,-0.606061 0.281113,-0.836832 0.02337,-0.23077 -0.03026,-0.391647 -0.214134,-0.615647 -0.183879,-0.223999 -0.498904,-0.512214 -0.970859,-0.846938 -0.471954,-0.334724 -1.101229,-0.716305 -1.553131,-0.980755 -0.451902,-0.264449 -0.726346,-0.411712 -0.890274,-0.485385 -0.163929,-0.07367 -0.217472,-0.07367 -0.173729,0.09461 0.04374,0.168284 0.183499,0.501033 0.347581,0.785673 0.164082,0.28464 0.351445,0.518845 0.502072,0.840138 0.150626,0.321294 0.264418,0.729603 0.33809,1.23182 0.07367,0.502216 0.107127,1.097738 0.113956,1.660216 0.0068,0.562477 -0.01349,1.104475 -0.06035,1.569863 -0.04686,0.465387 -0.120455,0.860132 -0.194099,1.164831 -0.07364,0.304699 -0.147219,0.518736 -0.22431,0.837119 -0.07709,0.318382 -0.157284,0.739399 -0.204289,1.164714 -0.047,0.425315 -0.06017,0.840026 -0.05687,1.144378 0.0033,0.304351 0.02344,0.492365 3.2e-5,0.693318 -0.02341,0.200952 -0.09025,0.414864 -0.150576,0.656118 -0.06032,0.241253 -0.113785,0.508568 -0.160168,0.76657 -0.04638,0.258002 -0.08753,0.518595 -0.12437,0.739651 -0.03684,0.221056 -0.07027,0.408243 -0.08033,0.639508 -0.01007,0.231265 0.0033,0.505213 0.03017,0.652691 0.02687,0.147478 0.06699,0.167535 0.08701,0.177547 0.02003,0.01001 0.02003,0.01002 0.07703,-0.107332 z"
         id="path5263"
         inkscape:connector-curvature="0"
         inkscape:path-effect="#path-effect5265"
         inkscape:original-d="m 92.104432,36.657509 c 0.114125,-0.234634 0.227937,-0.468949 0.341429,-0.702947 0.08052,-0.461502 0.160992,-0.92419 0.241011,-1.385809 0.02039,-0.281276 0.04048,-0.562674 0.06025,-0.843536 -0.07323,-0.388144 -0.146967,-0.776905 -0.220927,-1.164881 0.02039,-0.535553 0.04048,-1.071472 0.06025,-1.606732 0.07392,-0.348231 0.147603,-0.696571 0.220926,-1.044378 0.100636,-0.234385 0.201163,-0.46895 0.301264,-0.702946 0.160729,-0.39466 0.321663,-0.790295 0.482021,-1.184965 0.4083,-0.501933 0.843853,-1.004526 1.265304,-1.506312 0.214401,-0.301374 0.428779,-0.616234 0.642691,-0.923872 0.100623,-0.301225 0.201161,-0.602845 0.301263,-0.90379 -0.05318,-0.160785 -0.106803,-0.321663 -0.160674,-0.482019 -0.313959,-0.287849 -0.628985,-0.576064 -0.943955,-0.863619 -0.629015,-0.381935 -1.25829,-0.763516 -1.887914,-1.144798 -0.274203,-0.147623 -0.548647,-0.294886 -0.823448,-0.441852 -0.05326,-3.17e-4 -0.106803,-3.17e-4 -0.160675,0 0.141743,0.336407 0.281499,0.669155 0.421769,1.00421 0.187858,0.234107 0.375222,0.468312 0.562354,0.702945 0.11415,0.408128 0.227941,0.816438 0.341433,1.225133 0.03381,0.595824 0.06727,1.191346 0.100418,1.787493 -0.01979,0.528829 -0.03984,1.070837 -0.06025,1.606733 -0.07337,0.394914 -0.146967,0.789659 -0.220927,1.184966 -0.07339,0.214109 -0.146967,0.428145 -0.220926,0.642693 -0.08016,0.422201 -0.160356,0.843217 -0.241008,1.265304 -0.01307,0.428513 -0.02646,0.843217 -0.04017,1.2653 0.01371,0.187283 0.04048,0.374587 0.06025,0.562359 -0.06673,0.214232 -0.133577,0.428144 -0.20084,0.642694 -0.05334,0.267943 -0.106803,0.535258 -0.160674,0.803367 -0.03991,0.247724 -0.08002,0.508481 -0.120506,0.763197 -0.03321,0.187399 -0.06663,0.374587 -0.100419,0.562359 0.01374,0.274696 0.0271,0.548645 0.04017,0.823448 0.04053,0.01979 0.08065,0.03984 0.120506,0.06025 z" />
      <path
         style="fill:#e0e0e0;fill-opacity:0.480892;fill-rule:evenodd;stroke:#000000;stroke-width:0.265;stroke-linecap:butt;stroke-linejoin:miter;stroke-miterlimit:4;stroke-dasharray:none;stroke-opacity:1"
         d="m 106.70581,21.82528 c -0.1404,0.05014 -0.42158,0.150563 -0.75323,0.328093 -0.33166,0.17753 -0.71274,0.431584 -1.08111,0.669357 -0.36838,0.237773 -0.72287,0.45849 -0.9941,0.629263 -0.27123,0.170774 -0.45849,0.291155 -0.59924,0.42513 -0.14075,0.133976 -0.23429,0.280963 -0.28462,0.425087 -0.0503,0.144125 -0.057,0.284379 -0.0503,0.468779 0.007,0.184399 0.0267,0.411479 0.10712,0.619252 0.0804,0.207773 0.22082,0.394986 0.40496,0.632693 0.18414,0.237706 0.4117,0.525501 0.63263,0.823426 0.22094,0.297924 0.43514,0.605835 0.61817,0.868731 0.18302,0.262895 0.33916,0.486917 0.47306,0.731268 0.1339,0.244352 0.24767,0.512062 0.35817,0.816749 0.1105,0.304686 0.21755,0.645919 0.29401,0.998711 0.0764,0.352791 0.12217,0.716589 0.15393,0.992155 0.0318,0.275566 0.0495,0.462407 0.0501,0.805977 6.1e-4,0.343571 -0.0159,0.84223 -0.0331,1.152915 -0.0171,0.310685 -0.0349,0.432514 -0.0538,0.548652 -0.019,0.116139 -0.039,0.225862 -0.0521,0.301708 -0.013,0.07585 -0.0189,0.117083 0.004,0.226189 0.0226,0.109107 0.0731,0.282765 0.11039,0.413581 0.0373,0.130816 0.0609,0.21713 0.0876,0.313708 0.0267,0.09658 0.0562,0.202824 0.0864,0.32366 0.0302,0.120836 0.0609,0.255501 0.0917,0.399411 0.0308,0.143911 0.0615,0.29633 0.0822,0.411754 0.0207,0.115424 0.0314,0.19342 0.0468,0.254508 0.0154,0.06109 0.0355,0.104712 0.0629,0.13265 0.0274,0.02794 0.0616,0.03973 0.0953,0.02308 0.0337,-0.01666 0.067,-0.06186 0.0852,-0.116622 0.0182,-0.05476 0.0218,-0.120339 0.0183,-0.258843 -0.004,-0.138505 -0.0143,-0.352627 -0.035,-0.516415 -0.0207,-0.163788 -0.0515,-0.278742 -0.0882,-0.471415 -0.0366,-0.192672 -0.0793,-0.464204 -0.11422,-0.71204 -0.0349,-0.247836 -0.0622,-0.472906 -0.10711,-0.756124 -0.0449,-0.283219 -0.10774,-0.625667 -0.145,-0.929156 -0.0373,-0.30349 -0.0491,-0.568778 -0.0728,-0.855586 -0.0237,-0.286808 -0.0592,-0.596039 -0.0906,-0.866949 -0.0314,-0.27091 -0.0586,-0.504258 -0.0888,-0.733125 -0.0302,-0.228867 -0.0633,-0.453999 -0.1201,-0.723623 -0.0568,-0.269624 -0.13734,-0.584789 -0.19355,-0.826168 -0.0562,-0.24138 -0.0882,-0.409555 -0.11937,-0.857295 -0.0312,-0.447741 -0.0617,-1.17727 -0.0636,-1.762351 -0.002,-0.585081 0.025,-1.033803 0.0736,-1.36012 0.0486,-0.326316 0.1189,-0.533997 0.23091,-0.823202 0.11201,-0.289206 0.26627,-0.661447 0.37506,-0.905754 0.10878,-0.244306 0.17244,-0.361563 0.23928,-0.478531 0.0668,-0.116968 0.13736,-0.234501 0.22089,-0.373163 0.0835,-0.138662 0.18091,-0.299841 0.22934,-0.37999 0.0484,-0.08015 0.0484,-0.08016 -0.092,-0.03001 z"
         id="path5267"
         inkscape:connector-curvature="0"
         inkscape:path-effect="#path-effect5269"
         inkscape:original-d="m 106.84621,21.775138 c -0.28086,0.100106 -0.56204,0.200524 -0.84354,0.301263 -0.3818,0.254427 -0.76288,0.50848 -1.14479,0.763198 -0.35484,0.22082 -0.70933,0.441533 -1.06447,0.662778 -0.18732,0.120313 -0.37458,0.240691 -0.56235,0.361515 -0.0936,0.147256 -0.18713,0.294249 -0.28118,0.441851 -0.006,0.140625 -0.0131,0.28086 -0.0201,0.421767 0.0205,0.227842 0.0405,0.454923 0.0602,0.682863 0.14109,0.187372 0.2815,0.374587 0.42177,0.562355 0.228,0.287635 0.45556,0.575429 0.68286,0.863621 0.21458,0.307683 0.42878,0.615595 0.6427,0.923873 0.14763,0.220652 0.30827,0.441533 0.46193,0.662777 0.11416,0.267549 0.22794,0.535258 0.34143,0.803366 0.10749,0.341312 0.21455,0.682543 0.32135,1.024293 0.0461,0.363906 0.0918,0.727705 0.13722,1.092038 0.0181,0.186811 0.0358,0.373657 0.0533,0.560964 -0.0163,0.499871 -0.0328,0.998532 -0.0497,1.498274 -0.0174,0.12166 -0.0352,0.243477 -0.0532,0.365692 -0.0199,0.110073 -0.0399,0.219809 -0.0604,0.330189 -0.006,0.04124 -0.0115,0.08253 -0.0177,0.124266 0.0516,0.176342 0.10209,0.349989 0.15266,0.52546 0.024,0.08617 0.0477,0.172469 0.071,0.259179 0.03,0.106455 0.0595,0.212708 0.0888,0.319539 0.0311,0.134866 0.0619,0.269511 0.0923,0.404746 0.0311,0.152614 0.0619,0.305017 0.0923,0.458003 0.0109,0.07791 0.0216,0.155899 0.032,0.234329 0.0205,0.04362 0.0405,0.08727 0.0604,0.131365 0.0347,0.01154 0.0689,0.02335 0.10296,0.03551 0.0333,-0.04505 0.0666,-0.09026 0.0994,-0.134914 0.004,-0.06489 0.007,-0.130501 0.0107,-0.195273 -0.0102,-0.21225 -0.021,-0.426368 -0.032,-0.639074 -0.0304,-0.114955 -0.0612,-0.229912 -0.0923,-0.34439 -0.0422,-0.270819 -0.0849,-0.542349 -0.12781,-0.813047 -0.0269,-0.22496 -0.0541,-0.450037 -0.0817,-0.674577 -0.0623,-0.341921 -0.12512,-0.684365 -0.18817,-1.02607 -0.0115,-0.265221 -0.0233,-0.530511 -0.0355,-0.795293 -0.0352,-0.308851 -0.0707,-0.618088 -0.10652,-0.926656 -0.0269,-0.233252 -0.0541,-0.466607 -0.0817,-0.699431 -0.0328,-0.224912 -0.066,-0.45004 -0.0994,-0.674579 -0.0801,-0.314751 -0.16063,-0.629926 -0.24143,-0.94441 -0.0316,-0.168252 -0.0636,-0.336425 -0.0959,-0.504159 -0.0301,-0.727689 -0.0606,-1.457218 -0.0914,-2.185349 0.0271,-0.441985 0.0539,-0.890718 0.0803,-1.335598 0.0706,-0.207699 0.14091,-0.415391 0.21089,-0.62261 0.15401,-0.371191 0.30827,-0.743432 0.46193,-1.114671 0.0639,-0.117359 0.12752,-0.234634 0.1908,-0.351473 0.0704,-0.117095 0.14091,-0.234634 0.21088,-0.351473 0.0971,-0.160479 0.19447,-0.321664 0.29122,-0.482019 z" />
      <path
         style="fill:#cdcdcd;fill-opacity:1;fill-rule:evenodd;stroke:#000000;stroke-width:0.265;stroke-linecap:butt;stroke-linejoin:miter;stroke-miterlimit:4;stroke-dasharray:none;stroke-opacity:1"
         d="m 78.10013,36.73454 c -0.03553,-0.06159 -0.106543,-0.184672 -0.34116,-0.860182 -0.234617,-0.67551 -0.631689,-1.899817 -0.861267,-2.704581 -0.229578,-0.804764 -0.291128,-1.188266 -0.371572,-1.649633 -0.08045,-0.461366 -0.179924,-1.001397 -0.189372,-1.739711 -0.0094,-0.738315 0.07106,-1.676057 0.153914,-2.355304 0.08285,-0.679248 0.168091,-1.100717 0.319536,-1.536046 0.151445,-0.43533 0.369393,-0.885441 0.67933,-1.386986 0.309936,-0.501545 0.712658,-1.05588 1.150422,-1.555135 0.437764,-0.499254 0.91146,-0.944529 1.311359,-1.320765 0.3999,-0.376237 0.726765,-0.684154 1.223513,-1.027123 0.496748,-0.34297 1.164895,-0.72206 1.832186,-1.084096 0.66729,-0.362035 1.335146,-0.707805 2.357273,-1.195204 1.022127,-0.4874 2.400473,-1.117366 3.238327,-1.474729 0.837854,-0.357363 1.136169,-0.442596 1.469445,-0.526382 0.333276,-0.08379 0.684505,-0.162351 0.93525,-0.183602 0.250746,-0.02125 0.392909,0.01666 0.525319,0.06632 0.132409,0.04966 0.255676,0.111294 0.447171,0.376064 0.191495,0.264769 0.452128,0.733907 0.698322,1.145811 0.246194,0.411905 0.478101,0.766865 0.755092,1.107777 0.276991,0.340913 0.598825,0.66748 1.005967,1.015442 0.407142,0.347962 0.899463,0.717202 1.254516,0.965734 0.355053,0.248532 0.572836,0.376361 0.838042,0.442609 0.265205,0.06625 0.577636,0.07098 0.774064,0.03773 0.196427,-0.03325 0.276987,-0.104333 0.338342,-0.130228 0.06136,-0.0259 0.104134,-0.0069 0.16547,0.0403 0.06134,0.04718 0.14209,0.123185 0.248649,0.196583 0.10656,0.0734 0.239119,0.144412 0.42138,0.177518 0.18226,0.03311 0.414417,0.02837 0.556324,-0.03091 0.141907,-0.05928 0.194051,-0.173052 0.248387,-0.217839 0.05434,-0.04479 0.111334,-0.02104 0.160867,0.03789 0.04953,0.05893 0.09226,0.153879 0.168236,0.21317 0.07598,0.05929 0.184691,0.08293 0.302966,0.08052 0.118272,-0.0024 0.246362,-0.03087 0.333862,-0.06167 0.0875,-0.0308 0.135,-0.06405 0.22679,-0.111112 0.0918,-0.04706 0.23012,-0.109072 0.31757,-0.170628 0.0874,-0.06156 0.12543,-0.123283 0.14425,-0.170487 0.0188,-0.0472 0.0188,-0.08054 0.0446,-0.08051 0.0258,3.3e-5 0.0784,0.03348 0.16593,0.07132 0.0875,0.03784 0.21081,0.08052 0.30544,0.113638 0.0946,0.03312 0.16099,0.05682 0.28392,0.05444 0.12292,-0.0024 0.3033,-0.03087 0.55389,-0.125455 0.25058,-0.09458 0.57312,-0.255856 1.0083,-0.579893 0.43517,-0.324038 0.98495,-0.812205 1.43689,-1.297311 0.45194,-0.485106 0.8072,-0.968253 1.07222,-1.339771 0.26503,-0.371519 0.44031,-0.632073 0.58696,-0.87099 0.14665,-0.238916 0.26516,-0.456979 0.39293,-0.617784 0.12777,-0.160806 0.26529,-0.265133 0.43779,-0.319436 0.17251,-0.0543 0.38134,-0.05905 0.69339,6.3e-5 0.31205,0.05911 0.72928,0.182385 1.05349,0.279413 0.32421,0.09703 0.55628,0.168069 1.20197,0.447158 0.64568,0.279088 1.70699,0.767101 2.52829,1.138694 0.82129,0.371594 1.40364,0.62726 1.88878,0.878118 0.48514,0.250858 0.87342,0.497084 1.41539,0.828413 0.54196,0.331329 1.23799,0.748 1.75274,1.106674 0.51475,0.358674 0.85326,0.663806 1.22721,1.025927 0.37396,0.362121 0.78583,0.783458 1.13138,1.183447 0.34556,0.399989 0.62486,0.778693 0.9089,1.254453 0.28404,0.47576 0.57277,1.048481 0.76451,1.543163 0.19173,0.494682 0.28639,0.911172 0.34559,1.308894 0.0592,0.397722 0.0828,0.776224 0.10416,1.335105 0.0213,0.55888 0.0402,1.296784 -0.0142,1.992773 -0.0544,0.69599 -0.18218,1.348992 -0.3479,2.000077 -0.16572,0.651085 -0.36917,1.299263 -0.53745,1.853894 -0.16828,0.554631 -0.30038,1.012284 -0.39983,1.386383 -0.0995,0.374099 -0.16568,0.662628 -0.23183,0.821329 -0.0662,0.158701 -0.13237,0.18708 -0.16808,0.144085 -0.0357,-0.043 -0.0404,-0.15596 -0.01,-0.380402 0.0307,-0.224442 0.0972,-0.561451 0.15869,-0.852458 0.0615,-0.291007 0.11838,-0.537428 0.19417,-0.868998 0.0758,-0.33157 0.17037,-0.747756 0.30524,-1.206725 0.13486,-0.458969 0.31017,-0.961206 0.44501,-1.533746 0.13484,-0.57254 0.22959,-1.216846 0.2698,-1.758728 0.0402,-0.541882 0.026,-0.982376 -0.0663,-1.569083 -0.0923,-0.586707 -0.26281,-1.320973 -0.49898,-1.987352 -0.23618,-0.666379 -0.5402,-1.269676 -0.88097,-1.771367 -0.34078,-0.501691 -0.71957,-0.904154 -1.06513,-1.254449 -0.34556,-0.350296 -0.658,-0.648537 -1.09822,-0.972788 -0.44021,-0.324251 -1.00827,-0.674553 -1.53136,-0.94676 -0.5231,-0.272207 -1.00115,-0.466266 -1.50239,-0.636542 -0.50124,-0.170277 -1.02775,-0.317319 -1.65274,-0.445166 -0.62499,-0.127847 -1.34898,-0.236683 -2.06153,-0.265109 -0.71254,-0.02843 -1.4129,0.02363 -2.02367,0.127766 -0.61078,0.104139 -1.13125,0.260281 -1.5314,0.478041 -0.40015,0.21776 -0.67924,0.496853 -0.87396,0.671703 -0.19473,0.174851 -0.30467,0.245008 -0.52772,0.354171 -0.22305,0.109163 -0.55683,0.256184 -0.89728,0.441282 -0.34045,0.185098 -0.68563,0.407335 -1.08352,0.665489 -0.39789,0.258153 -0.84713,0.551342 -1.12889,0.771471 -0.28175,0.22013 -0.39527,0.366759 -0.4734,0.456784 -0.0781,0.09003 -0.12063,0.123081 -0.18497,0.235054 -0.0644,0.111972 -0.14885,0.299762 -0.29335,0.475132 -0.1445,0.175371 -0.34765,0.335993 -0.68651,0.504264 -0.33887,0.168271 -0.81144,0.343126 -1.14253,0.458041 -0.33108,0.114915 -0.50208,0.164414 -0.6443,0.173934 -0.142215,0.0095 -0.246135,-0.02355 -0.333901,-0.0876 -0.08777,-0.06406 -0.158635,-0.15855 -0.205973,-0.269863 -0.04734,-0.111313 -0.07102,-0.239194 -0.09583,-0.315971 -0.02481,-0.07678 -0.05562,-0.107591 -0.08387,-0.121793 -0.02825,-0.0142 -0.05664,-0.0142 -0.08294,0.05742 -0.0263,0.07162 -0.04971,0.212052 -0.111262,0.342393 -0.06155,0.130342 -0.16071,0.248386 -0.243611,0.314813 -0.0829,0.06643 -0.148979,0.08059 -0.332133,0.05205 -0.183155,-0.02853 -0.479729,-0.09915 -0.844448,-0.234134 -0.364719,-0.134987 -0.79517,-0.333657 -1.09824,-0.523076 -0.303069,-0.189419 -0.478166,-0.369249 -0.603642,-0.532625 -0.125476,-0.163375 -0.20122,-0.310128 -0.405495,-0.514715 -0.204275,-0.204587 -0.543574,-0.472203 -0.843539,-0.704265 -0.299965,-0.232062 -0.575797,-0.440145 -0.994775,-0.709998 -0.418978,-0.269853 -0.986938,-0.605896 -1.332471,-0.792885 -0.345534,-0.18699 -0.468593,-0.224852 -0.549062,-0.246171 -0.08047,-0.02132 -0.118265,-0.02604 -0.206486,-0.09756 -0.08822,-0.07152 -0.224509,-0.207812 -0.42095,-0.382953 -0.19644,-0.175141 -0.45207,-0.388166 -0.731287,-0.530173 -0.279217,-0.142006 -0.582148,-0.213005 -0.951555,-0.295886 -0.369407,-0.08288 -0.804591,-0.177485 -1.240189,-0.229584 -0.435599,-0.0521 -0.870881,-0.06156 -1.363379,-0.02843 -0.492497,0.03313 -1.041237,0.108823 -1.62843,0.229565 -0.587192,0.120742 -1.211661,0.286322 -1.756194,0.456772 -0.544532,0.17045 -1.008174,0.345498 -1.548096,0.617809 -0.539922,0.272311 -1.154817,0.641248 -1.739643,1.083983 -0.584826,0.442734 -1.138353,0.958413 -1.576376,1.460318 -0.438022,0.501905 -0.759736,0.989208 -1.017854,1.488817 -0.258119,0.499609 -0.452062,1.010482 -0.596512,1.476934 -0.14445,0.466452 -0.239056,0.887451 -0.303007,1.325553 -0.06395,0.438101 -0.09706,0.892152 -0.08049,1.403655 0.01656,0.511504 0.08279,1.079144 0.175117,1.607115 0.09233,0.527972 0.210618,1.015325 0.33428,1.435904 0.123662,0.42058 0.250305,0.767676 0.373421,1.179621 0.123115,0.411945 0.241402,0.885092 0.319531,1.282789 0.07813,0.397697 0.115981,0.719449 0.142026,0.965678 0.02604,0.246229 0.04023,0.416502 0.04735,0.501855 0.0071,0.08535 0.0071,0.08535 -0.02839,0.02376 z"
         id="path5271"
         inkscape:connector-curvature="0"
         inkscape:path-effect="#path-effect5273"
         inkscape:original-d="m 78.135662,36.796128 c -0.07068,-0.123398 -0.141699,-0.246477 -0.213026,-0.369241 -0.406461,-1.225387 -0.794973,-2.45247 -1.192938,-3.678228 -0.06121,-0.383704 -0.122763,-0.767206 -0.184622,-1.150334 -0.09902,-0.539615 -0.198505,-1.079645 -0.298234,-1.618989 0.08076,-0.937193 0.16127,-1.874935 0.241428,-2.811926 0.0855,-0.421479 0.170738,-0.842949 0.25563,-1.263948 0.217887,-0.449644 0.435835,-0.899756 0.653276,-1.349157 0.402356,-0.553712 0.805078,-1.108047 1.20714,-1.661593 0.473399,-0.445015 0.947095,-0.890289 1.420165,-1.334955 0.32673,-0.307807 0.653595,-0.615723 0.979915,-0.923108 0.667126,-0.378649 1.335273,-0.757739 2.002432,-1.136131 0.667418,-0.345697 1.335274,-0.691466 2.002434,-1.036721 1.377092,-0.629566 2.755438,-1.259531 4.132679,-1.88882 0.298471,-0.08551 0.596787,-0.170738 0.894705,-0.25563 0.369092,-0.08069 0.71987,-0.16127 1.079326,-0.241427 0.142189,0.03751 0.284352,0.07542 0.426048,0.113608 0.123212,0.06113 0.24648,0.122763 0.369244,0.184621 0.260414,0.467852 0.521044,0.936991 0.781093,1.405963 0.23233,0.354806 0.464237,0.709766 0.695881,1.065125 0.32229,0.326391 0.644126,0.652957 0.96571,0.979913 0.492646,0.368928 0.984966,0.738169 1.476973,1.107729 0.218053,0.127484 0.435837,0.255312 0.653276,0.383445 0.312613,0.01387 0.625188,0.0091 0.937309,0.0142 0.08071,-0.07125 0.161269,-0.142334 0.241428,-0.213024 0.04274,0.01854 0.08552,0.03755 0.127813,0.05681 0.08052,0.07516 0.16127,0.151165 0.241429,0.227226 0.132852,0.07069 0.265414,0.141699 0.397647,0.213025 0.232078,-0.0051 0.464237,-0.0097 0.69588,-0.0142 0.05231,-0.113777 0.104459,-0.227544 0.156218,-0.340839 0.05693,0.02328 0.113933,0.04702 0.170421,0.07101 0.0428,0.09409 0.08552,0.189038 0.127814,0.284033 0.109364,0.02339 0.218078,0.04702 0.326639,0.07101 0.127855,-0.02866 0.255945,-0.05712 0.383445,-0.08521 0.0475,-0.03335 0.095,-0.0666 0.14201,-0.09941 0.13655,-0.06139 0.27489,-0.123399 0.41185,-0.184622 0.0381,-0.06168 0.0761,-0.123399 0.11361,-0.18462 3.2e-4,-0.03326 3.2e-4,-0.0666 0,-0.09941 0.0519,0.0325 0.10446,0.06596 0.15622,0.09941 0.1232,0.04221 0.24648,0.0849 0.36924,0.127814 0.0665,0.02331 0.13287,0.04702 0.19882,0.07101 0.17972,-0.02864 0.3601,-0.05712 0.53967,-0.08521 0.32158,-0.160949 0.64412,-0.322223 0.96571,-0.482857 0.5488,-0.48733 1.09858,-0.975497 1.64739,-1.46277 0.35515,-0.482878 0.7104,-0.96603 1.06513,-1.448568 0.17534,-0.260489 0.35062,-0.521045 0.52546,-0.781092 0.1185,-0.21777 0.23701,-0.435834 0.35504,-0.653275 0.13736,-0.104278 0.27488,-0.208609 0.41185,-0.312436 0.20807,-0.0051 0.4169,-0.0097 0.62487,-0.0142 0.41625,0.122571 0.83348,0.245843 1.24974,0.369243 0.23217,0.07066 0.46424,0.141699 0.69589,0.213025 1.05978,0.486848 2.12109,0.974861 3.18117,1.46277 0.5825,0.255277 1.16485,0.510942 1.7468,0.766889 0.3884,0.245781 0.77668,0.492006 1.16454,0.738486 0.69605,0.416175 1.39208,0.832846 2.08764,1.249746 0.33638,0.297875 0.67253,0.605618 1.00831,0.908905 0.41215,0.420976 0.82402,0.842313 1.23555,1.263947 0.27962,0.378396 0.55891,0.757104 0.8379,1.136133 0.28912,0.572561 0.57785,1.14528 0.8663,1.718399 0.095,0.416356 0.18967,0.832843 0.28403,1.249745 0.024,0.378605 0.0477,0.757104 0.071,1.136133 0.0193,0.738747 0.0382,1.476651 0.0568,2.215456 -0.12755,0.653231 -0.25531,1.306233 -0.38344,1.95983 -0.20336,0.648586 -0.4068,1.296766 -0.61068,1.945626 -0.13704,0.459138 -0.26477,0.918054 -0.39764,1.377557 -0.066,0.288689 -0.13223,0.577217 -0.19883,0.866304 -0.066,0.02812 -0.13222,0.05649 -0.19882,0.08521 -0.004,-0.114594 -0.009,-0.227546 -0.0142,-0.34084 0.0664,-0.335525 0.13287,-0.672531 0.19883,-1.00832 0.0571,-0.24621 0.11393,-0.492639 0.17041,-0.738483 0.0996,-0.416273 0.18968,-0.833483 0.28404,-1.249748 0.17532,-0.501661 0.35062,-1.003901 0.52546,-1.505374 0.0949,-0.643634 0.18968,-1.287936 0.28403,-1.931425 -0.0139,-0.440325 -0.0281,-0.880819 -0.0426,-1.320752 -0.16998,-0.733558 -0.34052,-1.467824 -0.51126,-2.201258 -0.29782,-0.601331 -0.60562,-1.202724 -0.9089,-1.803609 -0.37832,-0.402613 -0.75711,-0.805078 -1.13614,-1.207139 -0.31211,-0.298546 -0.62455,-0.596788 -0.9373,-0.894704 -0.56776,-0.350634 -1.13582,-0.700934 -1.7042,-1.050923 -0.47788,-0.194437 -0.95593,-0.388496 -1.43437,-0.582268 -0.52532,-0.142382 -1.0506,-0.293818 -1.57638,-0.44025 -0.72426,-0.109244 -1.44825,-0.218078 -2.17285,-0.326639 -0.70056,0.05177 -1.40092,0.103833 -2.10185,0.156218 -0.52066,0.155976 -1.04113,0.312119 -1.56218,0.468656 -0.27919,0.279184 -0.55828,0.55828 -0.8379,0.837896 -0.10988,0.07 -0.21982,0.14016 -0.33021,0.210717 -0.33573,0.147697 -0.66951,0.294721 -1.00474,0.44256 -0.34565,0.222429 -0.69083,0.444667 -1.03673,0.667477 -0.44988,0.293497 -0.89912,0.586684 -1.34915,0.880502 -0.11339,0.146554 -0.22691,0.293183 -0.34084,0.440252 -0.0424,0.0329 -0.0849,0.06596 -0.12782,0.09941 -0.0856,0.190601 -0.1701,0.378392 -0.25562,0.568066 -0.20366,0.160958 -0.4068,0.321585 -0.61068,0.482854 -0.47388,0.17514 -0.94646,0.349989 -1.42016,0.525462 -0.18919,0.0518 -0.35946,0.103822 -0.53967,0.156218 -0.104045,-0.03352 -0.207967,-0.06658 -0.312431,-0.09941 -0.07083,-0.09518 -0.141698,-0.189674 -0.213027,-0.284034 -0.02335,-0.128064 -0.04702,-0.255947 -0.07101,-0.383442 -0.02803,-0.02395 -0.05649,-0.05712 -0.08521,-0.08521 -0.02809,-3.17e-4 -0.05648,-3.17e-4 -0.08521,0 -0.0236,0.14329 -0.04702,0.283717 -0.07101,0.426048 -0.09935,0.118333 -0.198505,0.236377 -0.298234,0.355045 -0.06615,0.01394 -0.132229,0.02809 -0.198823,0.0426 -0.299578,-0.07172 -0.596152,-0.142332 -0.894704,-0.213024 -0.430797,-0.199294 -0.861248,-0.397965 -1.292351,-0.59647 -0.174891,-0.180263 -0.349989,-0.360092 -0.525459,-0.539663 -0.07542,-0.147065 -0.151167,-0.293816 -0.227227,-0.440248 -0.330779,-0.265197 -0.671892,-0.530513 -1.008317,-0.795293 -0.26008,-0.2039 -0.539345,-0.407432 -0.809496,-0.610671 -0.567852,-0.336486 -1.135812,-0.67253 -1.704198,-1.008318 -0.122784,-0.0382 -0.245844,-0.07606 -0.369242,-0.113608 -0.03761,-0.0051 -0.07542,-0.0097 -0.11362,-0.0142 -0.137958,-0.138594 -0.274245,-0.274884 -0.411847,-0.411848 -0.255312,-0.213343 -0.510941,-0.426368 -0.766888,-0.639075 -0.302688,-0.07133 -0.605618,-0.142334 -0.908908,-0.213024 -0.43553,-0.09507 -0.870714,-0.189674 -1.30655,-0.284033 -0.435437,-0.0097 -0.870717,-0.01925 -1.306553,-0.02841 -0.549203,0.07548 -1.097943,0.151167 -1.647392,0.227226 -0.624957,0.165475 -1.249426,0.331054 -1.874617,0.497059 -0.463882,0.17494 -0.927523,0.349989 -1.391762,0.52546 -0.615596,0.36923 -1.230491,0.738168 -1.846214,1.107729 -0.553884,0.515989 -1.107411,1.031669 -1.661594,1.54798 -0.321776,0.48756 -0.64349,0.974862 -0.965712,1.462771 -0.193918,0.511325 -0.38786,1.022199 -0.582268,1.533776 -0.09443,0.421314 -0.189037,0.842313 -0.284032,1.263948 -0.03285,0.454536 -0.06596,0.908587 -0.09941,1.363358 0.06665,0.568173 0.132867,1.135814 0.198823,1.7042 0.118719,0.487508 0.237012,0.97486 0.355042,1.462769 0.137664,0.350151 0.255947,0.700297 0.383444,1.050922 0.11873,0.47331 0.237012,0.946458 0.355041,1.420166 0.03821,0.321738 0.07606,0.64349 0.113609,0.965712 0.01454,0.170249 0.02872,0.340522 0.0426,0.511258 z" />
      <text
         xml:space="preserve"
         style="font-style:normal;font-variant:normal;font-weight:normal;font-stretch:normal;font-size:5.64444px;line-height:125%;font-family:Arial;-inkscape-font-specification:'Arial, Normal';font-variant-ligatures:normal;font-variant-caps:normal;font-variant-numeric:normal;font-variant-east-asian:normal;text-align:start;letter-spacing:0px;word-spacing:0px;writing-mode:lr-tb;text-anchor:start;fill:#000000;fill-opacity:1;stroke:none;stroke-width:0.318117px;stroke-linecap:butt;stroke-linejoin:miter;stroke-opacity:1"
         x="106.73357"
         y="41.403625"
         id="text837"><tspan
           sodipodi:role="line"
           id="tspan835"
           x="106.73357"
           y="41.403625"
           style="font-style:normal;font-variant:normal;font-weight:normal;font-stretch:normal;font-size:5.64444px;font-family:Arial;-inkscape-font-specification:'Arial, Normal';font-variant-ligatures:normal;font-variant-caps:normal;font-variant-numeric:normal;font-variant-east-asian:normal;text-align:start;writing-mode:lr-tb;text-anchor:start;stroke-width:0.318117px">MS</tspan></text>
      <path
         style="fill:none;fill-rule:evenodd;stroke:#000000;stroke-width:0.300583;stroke-linecap:butt;stroke-linejoin:miter;stroke-miterlimit:4;stroke-dasharray:none;stroke-opacity:1"
         d="m 99.973569,46.095851 6.282811,-5.964693"
         id="path847"
         inkscape:connector-curvature="0" />
    </g>
  </g>
</svg>
