<?xml version="1.0" encoding="UTF-8" standalone="no"?>
<!-- Created with Inkscape (http://www.inkscape.org/) -->

<svg
   xmlns:dc="http://purl.org/dc/elements/1.1/"
   xmlns:cc="http://creativecommons.org/ns#"
   xmlns:rdf="http://www.w3.org/1999/02/22-rdf-syntax-ns#"
   xmlns:svg="http://www.w3.org/2000/svg"
   xmlns="http://www.w3.org/2000/svg"
   xmlns:sodipodi="http://sodipodi.sourceforge.net/DTD/sodipodi-0.dtd"
   xmlns:inkscape="http://www.inkscape.org/namespaces/inkscape"
   width="56.098972mm"
   height="50.994438mm"
   viewBox="0 0 56.098972 50.994438"
   version="1.1"
   id="svg4681"
   inkscape:version="0.92.4 (5da689c313, 2019-01-14)"
   sodipodi:docname="MS_schema.svg">
  <defs
     id="defs4675">
    <inkscape:path-effect
       effect="bspline"
       id="path-effect5273"
       is_visible="true"
       weight="33.333333"
       steps="2"
       helper_size="0"
       apply_no_weight="true"
       apply_with_weight="true"
       only_selected="false" />
    <inkscape:path-effect
       effect="bspline"
       id="path-effect5269"
       is_visible="true"
       weight="33.333333"
       steps="2"
       helper_size="0"
       apply_no_weight="true"
       apply_with_weight="true"
       only_selected="false" />
    <inkscape:path-effect
       effect="bspline"
       id="path-effect5265"
       is_visible="true"
       weight="33.333333"
       steps="2"
       helper_size="0"
       apply_no_weight="true"
       apply_with_weight="true"
       only_selected="false" />
    <inkscape:path-effect
       effect="bspline"
       id="path-effect5255"
       is_visible="true"
       weight="33.333333"
       steps="2"
       helper_size="0"
       apply_no_weight="true"
       apply_with_weight="true"
       only_selected="false" />
    <inkscape:path-effect
       effect="bspline"
       id="path-effect5251"
       is_visible="true"
       weight="33.333333"
       steps="2"
       helper_size="0"
       apply_no_weight="true"
       apply_with_weight="true"
       only_selected="false" />
    <inkscape:path-effect
       effect="bspline"
       id="path-effect4701"
       is_visible="true"
       weight="33.333333"
       steps="2"
       helper_size="0"
       apply_no_weight="true"
       apply_with_weight="true"
       only_selected="false" />
    <inkscape:path-effect
       effect="bspline"
       id="path-effect4697"
       is_visible="true"
       weight="33.333333"
       steps="2"
       helper_size="0"
       apply_no_weight="true"
       apply_with_weight="true"
       only_selected="false" />
    <inkscape:path-effect
       effect="bspline"
       id="path-effect5273-6"
       is_visible="true"
       weight="33.333333"
       steps="2"
       helper_size="0"
       apply_no_weight="true"
       apply_with_weight="true"
       only_selected="false" />
    <inkscape:path-effect
       effect="bspline"
       id="path-effect5269-5"
       is_visible="true"
       weight="33.333333"
       steps="2"
       helper_size="0"
       apply_no_weight="true"
       apply_with_weight="true"
       only_selected="false" />
    <inkscape:path-effect
       effect="bspline"
       id="path-effect5265-9"
       is_visible="true"
       weight="33.333333"
       steps="2"
       helper_size="0"
       apply_no_weight="true"
       apply_with_weight="true"
       only_selected="false" />
    <inkscape:path-effect
       effect="bspline"
       id="path-effect5255-7"
       is_visible="true"
       weight="33.333333"
       steps="2"
       helper_size="0"
       apply_no_weight="true"
       apply_with_weight="true"
       only_selected="false" />
    <inkscape:path-effect
       effect="bspline"
       id="path-effect5251-6"
       is_visible="true"
       weight="33.333333"
       steps="2"
       helper_size="0"
       apply_no_weight="true"
       apply_with_weight="true"
       only_selected="false" />
    <inkscape:path-effect
       effect="bspline"
       id="path-effect4701-0"
       is_visible="true"
       weight="33.333333"
       steps="2"
       helper_size="0"
       apply_no_weight="true"
       apply_with_weight="true"
       only_selected="false" />
    <inkscape:path-effect
       effect="bspline"
       id="path-effect4697-9"
       is_visible="true"
       weight="33.333333"
       steps="2"
       helper_size="0"
       apply_no_weight="true"
       apply_with_weight="true"
       only_selected="false" />
  </defs>
  <sodipodi:namedview
     id="base"
     pagecolor="#ffffff"
     bordercolor="#666666"
     borderopacity="1.0"
     inkscape:pageopacity="0.0"
     inkscape:pageshadow="2"
     inkscape:zoom="4"
     inkscape:cx="149.33649"
     inkscape:cy="105.2517"
     inkscape:document-units="mm"
     inkscape:current-layer="layer1"
     showgrid="false"
     inkscape:window-width="2880"
     inkscape:window-height="1526"
     inkscape:window-x="2869"
     inkscape:window-y="-11"
     inkscape:window-maximized="1"
     fit-margin-top="0"
     fit-margin-left="0"
     fit-margin-right="0"
     fit-margin-bottom="0" />
  <metadata
     id="metadata4678">
    <rdf:RDF>
      <cc:Work
         rdf:about="">
        <dc:format>image/svg+xml</dc:format>
        <dc:type
           rdf:resource="http://purl.org/dc/dcmitype/StillImage" />
        <dc:title></dc:title>
      </cc:Work>
    </rdf:RDF>
  </metadata>
  <g
     inkscape:label="Ebene 1"
     inkscape:groupmode="layer"
     id="layer1"
     transform="translate(-7.3528451,-3.6601984)">
    <path
       style="fill:#ffffff;fill-opacity:0.87898087;fill-rule:evenodd;stroke:#000000;stroke-width:0.1;stroke-linecap:butt;stroke-linejoin:miter;stroke-miterlimit:4;stroke-dasharray:none;stroke-opacity:1"
       d="m 10.239764,19.156621 c 0,0 0.61806,-0.985556 0.61806,-0.985556 0,0 0.968852,-1.052374 0.968852,-1.052374 0,0 0.501131,-0.551244 0.501131,-0.551244 0,0 0.634765,-0.517834 0.634765,-0.517834 0,0 0.751696,-0.618061 0.751696,-0.618061 0.217156,-0.161475 0.557693,-0.414695 0.652766,-0.481684 0.09507,-0.06699 0.896883,-0.601528 1.004317,-0.666835 0.107435,-0.06531 1.129795,-0.630294 1.269947,-0.7002 0.140151,-0.06991 0.985413,-0.448381 1.115645,-0.506159 0.130232,-0.05778 1.013173,-0.445884 1.519871,-0.668609 0,0 1.135896,-0.434313 1.135896,-0.434313 0.289542,-0.111362 0.724228,-0.278549 0.868118,-0.336504 0.14389,-0.05795 1.05845,-0.443032 1.587421,-0.665756 0,0 0.985556,-0.3842 0.985556,-0.3842 0,0 1.436574,-0.6013567 1.436574,-0.6013567 0,0 1.820774,-0.4510172 1.820774,-0.4510172 0,0 1.65373,-0.334087 1.65373,-0.334087 0,0 1.703843,-0.1837479 1.703843,-0.1837479 0.373063,0.050113 1.037149,0.1393188 1.114971,0.1583382 0.07782,0.019019 0.883982,0.3149516 1.323863,0.4764269 0,0 0.968853,0.7851047 0.968853,0.7851047 0,0 0.801807,1.035669 0.801807,1.035669 0.211589,0.311814 0.423138,0.62357 0.54285,0.826758 0.119711,0.203188 0.147546,0.297828 0.264776,0.158216 0.117229,-0.139612 0.322876,-0.511999 0.603952,-0.901578 0.281075,-0.38958 0.637736,-0.796395 1.055209,-1.15539 0.417473,-0.358995 0.896662,-0.6710253 1.319725,-0.8797414 0.423063,-0.2087161 0.790794,-0.314578 1.338912,-0.3590818 0.548119,-0.044504 1.278166,-0.027785 2.241206,0.1169567 0.963041,0.144742 2.160609,0.4176763 3.449488,0.8241105 1.28888,0.406434 2.669997,0.946628 3.967301,1.475573 1.297303,0.528944 2.511275,1.046831 3.52021,1.512267 1.008936,0.465435 1.830776,0.887614 2.515597,1.288487 0.68482,0.400873 1.241702,0.785122 1.685757,1.112506 0.444056,0.327384 0.780903,0.602476 1.197155,1.001952 0.416251,0.399476 0.92006,0.931274 1.410039,1.568797 0.489979,0.637524 0.968831,1.383642 1.344685,2.074087 0.375854,0.690444 0.648667,1.325153 0.882549,1.971098 0.233882,0.645945 0.428727,1.30285 0.601361,1.948824 0.172635,0.645974 0.322935,1.280574 0.462161,1.951629 0.139226,0.671056 0.267254,1.377994 0.32574,1.929264 0.05849,0.551271 0.04735,0.94649 0.01951,1.294588 -0.02784,0.348098 -0.07235,0.64857 -0.186571,1.150039 -0.114217,0.501469 -0.297783,1.202359 -0.618038,2.227189 -0.320255,1.02483 -0.776638,2.371715 -1.172001,3.446454 -0.395363,1.07474 -0.729371,1.876358 -0.915898,2.316257 -0.186527,0.439898 -0.225489,0.517821 -0.272981,0.70496 -0.04749,0.187138 -0.102948,0.481048 -0.253347,0.829257 -0.150398,0.34821 -0.395144,0.748702 -0.70707,1.14978 -0.311927,0.401079 -0.690266,0.801674 -1.183244,1.297442 -0.492979,0.495769 -1.099492,1.085589 -1.414129,1.378071 -0.314637,0.292483 -0.336916,0.286918 -0.383513,0.318689 -0.0466,0.03177 -0.651506,0.62314 -0.718591,0.681561 -0.06708,0.05842 -0.45233,0.348124 -0.798759,0.619315 -0.346429,0.27119 -0.813535,0.643762 -1.122623,0.902711 -0.309087,0.258948 -0.459332,0.403629 -0.579153,0.537355 -0.119822,0.133726 -0.20875,0.256001 -0.362165,0.526556 -0.153415,0.270556 -0.370041,0.687145 -0.875886,1.401966 -0.505845,0.71482 -1.501052,1.982325 -2.273678,2.526587 -0.772626,0.544262 -1.650781,0.634285 -2.130572,0.676061 -0.479792,0.04178 -0.624511,0.04178 -0.906113,-4.1e-5 -0.281601,-0.04182 -0.698447,-0.125186 -1.032595,-0.192016 -0.334149,-0.06683 -0.584591,-0.116918 -0.885402,-0.167056 -0.300812,-0.05014 -0.651318,-0.10021 -1.083704,-0.147946 -0.432386,-0.04774 -1.481863,-0.140328 -1.938013,-0.265288 -0.456151,-0.124961 -1.113574,-0.466492 -1.498726,-0.700384 -0.385152,-0.233892 -0.630102,-0.428739 -0.894641,-0.726698 -0.264539,-0.29796 -0.548475,-0.698811 -0.723863,-0.941011 -0.175388,-0.2422 -0.242211,-0.325729 -0.331239,-0.406417 -0.08903,-0.08069 -0.200434,-0.158671 -0.336937,-0.31468 -0.136503,-0.156009 -0.297902,-0.389759 -0.495507,-0.601284 -0.197606,-0.211526 -0.431523,-0.400887 -0.735033,-0.707183 -0.30351,-0.306295 -0.676525,-0.729417 -0.879697,-0.949319 -0.203171,-0.219902 -0.236584,-0.236607 -0.275524,-0.236669 -0.03894,-6.1e-5 -0.08335,0.01659 -0.203809,0.153839 -0.120457,0.137247 -0.313946,0.391546 -0.595318,0.678512 -0.281373,0.286966 -0.648446,0.603984 -0.876762,0.790563 -0.228315,0.18658 -0.317333,0.242216 -0.401066,0.348219 -0.08373,0.106002 -0.161415,0.261368 -0.272857,0.395162 -0.111442,0.133794 -0.255917,0.244929 -0.369327,0.327002 -0.11341,0.08207 -0.187254,0.129544 -0.2978,0.286543 -0.110546,0.156998 -0.257088,0.427535 -0.440965,0.691755 -0.183878,0.26422 -0.417408,0.537621 -0.7071,0.768856 -0.289692,0.231235 -0.640109,0.425911 -0.965977,0.59303 -0.325867,0.16712 -0.626276,0.306198 -0.874627,0.392689 -0.248351,0.08649 -3.616198,0.665255 -3.721058,0.681815 -0.10486,0.01656 -0.268384,0.0096 -0.483015,0.04955 -0.214632,0.03995 -0.55332,0.123232 -0.89594,0.165031 -0.34262,0.0418 -1.216694,0.0418 -1.532768,2.73e-4 -0.316073,-0.04153 -1.383543,-0.350799 -1.854667,-0.732399 -0.471123,-0.3816 -1.357745,-1.492339 -1.783802,-2.076124 -0.426057,-0.583784 -1.131077,-1.924111 -1.554515,-2.37884 -0.423438,-0.45473 -4.985554,-4.51361 -5.797985,-5.379208 -0.812431,-0.865598 -1.139421,-1.977282 -1.462379,-2.866989 -0.322958,-0.889707 -1.139849,-2.98262 -1.5852877,-4.166719 -0.4454388,-1.184099 -0.679319,-1.869034 -0.790639,-2.258859 -0.11132,-0.389825 -0.1001812,-0.484504 -0.1473906,-0.634432 -0.047209,-0.149927 -0.1533289,-0.35658 -0.2348884,-0.844646 -0.08156,-0.488065 -0.2173795,-2.311283 -0.08539,-3.302004 0.1319891,-0.99072 0.7461684,-3.305907 1.0973594,-4.475144 0.351191,-1.169236 0.5842998,-1.740908 0.837605,-2.244696 0.2533052,-0.503788 0.526295,-0.938343 0.6626166,-1.155345 0.136322,-0.217002 0.136322,-0.217018 0.136322,-0.217018 z"
       id="path4695"
       inkscape:connector-curvature="0"
       inkscape:path-effect="#path-effect4697"
       inkscape:original-d="m 10.239764,19.156621 0.61806,-0.985556 0.968852,-1.052374 0.501131,-0.551244 0.634765,-0.517834 0.751696,-0.618061 c 0,0 0.567947,-0.400905 0.651469,-0.484426 0.08352,-0.08352 0.88533,-0.618061 1.002261,-0.668174 0.11693,-0.05011 1.119191,-0.651469 1.26953,-0.701582 0.150339,-0.05011 0.985556,-0.451018 1.119191,-0.501131 0.133635,-0.05011 1.520095,-0.668174 1.520095,-0.668174 l 1.135896,-0.434313 c 0,0 0.734991,-0.250565 0.868626,-0.334087 0.133635,-0.08352 1.586913,-0.668173 1.586913,-0.668173 l 0.985556,-0.3842 1.436574,-0.6013567 1.820774,-0.4510172 1.65373,-0.334087 1.703843,-0.1837479 c 0,0 1.035669,0.1503392 1.11919,0.1503392 0.08352,0 1.319644,0.4844259 1.319644,0.4844259 l 0.968853,0.7851047 0.801807,1.035669 c 0,0 0.423442,0.623364 0.634767,0.935443 0.02811,0.09441 0.05594,0.189052 0.08352,0.283974 0.206658,-0.374005 0.412306,-0.746392 0.618062,-1.119191 0.356322,-0.406394 0.712983,-0.813209 1.069078,-1.219417 0.47879,-0.311864 0.957979,-0.6238937 1.436573,-0.9354434 0.367525,-0.1059911 0.735256,-0.211853 1.102487,-0.3173826 0.729062,0.016425 1.459109,0.033144 2.188269,0.050113 1.196985,0.2724767 2.394553,0.5454108 3.591432,0.8185132 1.380935,0.5397548 2.762052,1.0799498 4.14268,1.6203208 1.21399,0.517518 2.427962,1.035405 3.641547,1.553505 0.801987,0.4173 1.626153,0.834952 2.438834,1.252825 0.557006,0.383888 1.113888,0.768136 1.670434,1.1526 0.334319,0.266979 0.668438,0.545411 1.00226,0.818513 0.495784,0.52866 1.002527,1.057678 1.503392,1.586913 0.479128,0.745873 0.957982,1.49199 1.436573,2.238382 0.273127,0.634558 0.545941,1.269266 0.818513,1.904296 0.195188,0.656904 0.390032,1.31381 0.584652,1.971112 0.150643,0.634666 0.300942,1.269266 0.451019,1.904296 0.128368,0.707099 0.256397,1.414037 0.384199,2.121451 -0.01087,0.395189 -0.02201,0.790408 -0.03341,1.18601 -0.04431,0.30062 -0.08883,0.601091 -0.133636,0.902034 -0.183663,0.702011 -0.367231,1.4029 -0.55124,2.104747 -0.456526,1.347819 -0.912908,2.694704 -1.369759,4.042452 -0.333901,0.801733 -0.667909,1.603351 -1.00226,2.405425 -0.03873,0.07772 -0.07769,0.155644 -0.11693,0.23386 -0.05564,0.296048 -0.111099,0.589957 -0.167045,0.885333 -0.244983,0.40105 -0.489728,0.801542 -0.734991,1.202711 -0.378658,0.40095 -0.756997,0.801545 -1.135893,1.202714 -0.607074,0.590354 -1.213586,1.180176 -1.820775,1.77066 -0.02201,-0.0058 -0.04428,-0.0114 -0.06682,-0.01669 -0.07273,0.06711 -0.673672,0.662538 -0.746324,0.72962 -0.06352,0.0477 -0.448765,0.337405 -0.673544,0.506503 -0.468075,0.37329 -0.935181,0.745863 -1.403165,1.11919 -0.15017,0.144597 -0.300413,0.28928 -0.451017,0.434314 -0.08899,0.122454 -0.177916,0.244731 -0.267271,0.367495 -0.217422,0.418365 -0.434049,0.834954 -0.651468,1.252826 -0.685133,1.097486 -1.89866,2.193573 -2.583802,3.290755 -0.751051,0.07676 -1.629206,0.16678 -2.444207,0.250566 -0.144558,-2.65e-4 -0.289277,-2.65e-4 -0.434314,0 -0.418105,-0.08394 -0.834951,-0.167307 -1.252826,-0.250566 -0.250422,-0.0504 -0.500864,-0.100489 -0.751694,-0.150339 -0.350811,-0.05042 -0.701318,-0.100488 -1.052375,-0.150339 -0.512326,-0.06155 -1.564571,-0.122761 -2.08267,-0.183747 -0.3927,-0.20441 -1.050124,-0.545939 -1.575581,-0.818513 -0.244779,-0.195186 -0.48973,-0.390033 -0.734991,-0.584652 -0.283747,-0.401222 -0.567682,-0.802074 -0.851921,-1.202711 -0.06655,-0.08378 -0.133372,-0.16731 -0.200451,-0.250566 -0.111057,-0.07819 -0.222462,-0.156173 -0.33409,-0.233863 -0.161287,-0.234235 -0.322686,-0.467984 -0.484425,-0.701582 -0.23354,-0.189534 -0.467456,-0.378897 -0.701583,-0.567947 -0.372848,-0.423497 -0.745863,-0.846619 -1.11919,-1.269529 -0.03314,-0.01696 -0.06655,-0.03367 -0.100227,-0.05011 -0.04442,0.01648 -0.08883,0.03314 -0.133633,0.05011 -0.196016,0.257702 -0.389504,0.512001 -0.584652,0.768398 -0.367655,0.317484 -0.734727,0.634503 -1.102487,0.952148 -0.0889,0.05546 -0.177917,0.111099 -0.267272,0.167045 -0.07796,0.156183 -0.155641,0.311549 -0.23386,0.46772 -0.144801,0.111326 -0.289277,0.222461 -0.434313,0.334089 -0.08343,0.04995 -0.155641,0.09996 -0.23386,0.150339 -0.145076,0.262469 -0.289277,0.534273 -0.434314,0.801806 -0.228295,0.256173 -0.456321,0.534276 -0.684876,0.80181 -0.350901,0.194826 -0.701318,0.389503 -1.052375,0.584652 -0.300683,0.139062 -0.601091,0.278141 -0.902033,0.417608 -0.194826,0.03875 -3.564505,0.606856 -3.759654,0.646096 -0.01361,-7.93e-4 -0.177132,-0.0078 -0.266095,-0.01132 -0.340358,0.08349 -0.679045,0.166778 -1.018965,0.250563 -0.345274,-2.64e-4 -1.219348,-2.64e-4 -1.564836,0 -0.277519,-0.1146 -1.367697,-0.345496 -1.787361,-0.517843 -0.511198,-0.63594 -1.395346,-1.748653 -2.093416,-2.622582 C 18.73141,48.50035 18.040762,47.152464 17.879022,46.863187 17.166741,46.269028 12.663166,42.144349 11.113175,40.843663 10.852941,40.499956 10.720481,39.331053 10.523738,38.839727 10.026818,37.565652 9.2099269,35.47274 8.5526249,33.789643 8.3190481,33.104558 8.0851678,32.419623 7.8510423,31.735008 c 0.011398,-0.0949 0.022537,-0.189579 0.033409,-0.283974 C 7.7792473,31.245384 7.6731272,31.038731 7.5670684,30.832975 7.4838525,30.064688 7.4002896,28.237577 7.3165032,27.469441 7.6380318,26.258152 8.2522112,23.942965 8.7196683,22.180123 8.9593194,21.606445 9.1876545,21.032827 9.4212507,20.459576 9.6942009,20.02524 9.9671906,19.590685 10.239764,19.156637 Z"
       transform="translate(-0.04724709,2.6513165)" />
    <path
       style="fill:#126cbb;fill-opacity:1;fill-rule:evenodd;stroke:#000000;stroke-width:0.11;stroke-linecap:butt;stroke-linejoin:miter;stroke-miterlimit:4;stroke-dasharray:none;stroke-opacity:1"
       d="m 31.585162,46.713071 c 0.01395,-0.07254 0.04179,-0.217309 0.08911,-0.345261 0.04732,-0.127953 0.114281,-0.23955 0.210589,-0.380694 0.09631,-0.141145 1.785372,-2.436901 1.856001,-2.61404 0.07063,-0.177139 0.291832,-2.470229 0.350055,-3.226741 0.05822,-0.756512 0.110172,-2.011956 0.19289,-2.646 0.08272,-0.634043 0.299821,-1.626749 0.430653,-2.237275 0.130833,-0.610527 0.214386,-1.017152 0.278418,-1.295507 0.06403,-0.278355 0.10861,-0.428805 0.16426,-0.565096 0.05565,-0.136291 0.122607,-0.259047 0.194082,-0.29666 0.07147,-0.03761 0.140018,0.0046 0.226209,0.193605 0.08619,0.189037 0.186519,0.523465 0.306276,1.091595 0.119757,0.56813 0.25889,1.369529 0.370338,2.024296 0.111448,0.654767 0.1948,1.160436 0.250493,1.553037 0.05569,0.392601 0.08352,0.670889 0.105808,1.116587 0.02229,0.445698 0.03898,1.057673 0.09188,1.609042 0.0529,0.55137 0.141953,1.041158 0.203216,1.444903 0.06126,0.403745 0.09466,0.72099 0.211648,1.071991 0.11699,0.351 0.317296,0.734917 0.665378,1.250081 0.348082,0.515164 0.843516,1.160899 1.102431,1.547801 0.258915,0.386902 0.281187,0.514959 0.264496,0.684912 -0.01669,0.169953 -0.07228,0.381191 -0.161344,0.517732 -0.08906,0.136541 -0.211379,0.197698 -0.350811,0.228402 -0.139431,0.0307 -0.294934,0.0307 -0.478952,-0.03063 -0.184018,-0.06133 -0.395246,-0.183619 -0.68487,-0.364632 -0.289623,-0.181013 -0.656976,-0.420349 -0.863012,-0.556777 -0.206037,-0.136427 -0.250567,-0.169826 -0.392686,-0.298011 -0.142118,-0.128185 -0.381321,-0.350699 -0.526066,-0.478749 -0.144745,-0.128051 -0.194857,-0.161459 -0.417708,-0.01942 -0.222852,0.142042 -0.617707,0.459038 -0.961159,0.719519 -0.343453,0.260481 -0.642091,0.468965 -0.892754,0.622168 -0.250663,0.153202 -0.456472,0.253325 -0.660254,0.317489 -0.203781,0.06416 -0.403167,0.09186 -0.567623,0.06958 -0.164456,-0.02228 -0.292335,-0.09456 -0.389872,-0.208848 -0.09754,-0.114288 -0.164308,-0.270089 -0.197689,-0.347978 -0.03338,-0.07789 -0.03338,-0.07789 -0.01943,-0.150426 z"
       id="path4699"
       inkscape:connector-curvature="0"
       inkscape:path-effect="#path-effect4701"
       inkscape:original-d="m 31.571213,46.785609 c 0.0281,-0.145037 0.05595,-0.289806 0.08352,-0.434314 0.06694,-0.111392 0.1339,-0.222988 0.200453,-0.334086 0.116867,-0.177946 1.821625,-2.462155 1.93829,-2.634502 0.02146,-0.186438 0.222599,-2.481463 0.3335,-3.457212 0.0286,-0.535406 0.06708,-1.791407 0.100226,-2.422131 0.139523,-0.637029 0.356624,-1.629735 0.534541,-2.444207 0.08375,-0.406583 0.167306,-0.813208 0.250563,-1.219417 0.04478,-0.15049 0.08935,-0.300943 0.133636,-0.451017 0.06694,-0.122507 0.1339,-0.245261 0.20045,-0.367496 0.07802,0.04417 0.145037,0.08883 0.217157,0.133636 0.100388,0.333481 0.200718,0.667909 0.300678,1.00226 0.139539,0.801952 0.278672,1.603351 0.41761,2.405425 0.08938,0.506569 0.167307,1.013132 0.250566,1.520095 0.02812,0.278259 0.05594,0.556548 0.08352,0.835218 0.01699,0.612746 0.03367,1.224722 0.05011,1.837478 0.08939,0.489935 0.178446,0.979723 0.267272,1.469983 0.03369,0.317254 0.06708,0.6345 0.100224,0.952148 0.200866,0.384217 0.401169,0.768136 0.601358,1.152599 0.495954,0.645803 0.991389,1.291537 1.486686,1.937705 0.02254,0.12781 0.04481,0.255868 0.06682,0.384199 -0.05551,0.211675 -0.111099,0.422913 -0.167045,0.634765 -0.122415,0.06108 -0.244732,0.122234 -0.367496,0.183747 -0.156046,-2.64e-4 -0.311549,-2.64e-4 -0.467719,0 -0.211686,-0.12297 -0.422913,-0.24526 -0.634768,-0.367495 -0.367373,-0.239787 -0.734726,-0.479121 -1.102487,-0.718286 -0.04429,-0.03368 -0.08882,-0.06708 -0.133633,-0.100227 -0.239392,-0.223199 -0.478594,-0.445714 -0.718288,-0.668173 -0.04985,-0.03367 -0.09996,-0.06708 -0.150339,-0.100227 -0.395552,0.317505 -0.790408,0.6345 -1.186008,0.952148 -0.289491,0.205907 -0.589954,0.411777 -0.88533,0.618062 -0.205967,0.100062 -0.411776,0.200186 -0.618061,0.300677 -0.200496,0.03319 -0.40064,0.05542 -0.601356,0.08352 -0.127992,-0.07275 -0.255868,-0.145034 -0.384201,-0.217156 -0.0666,-0.156277 -0.133369,-0.312079 -0.200451,-0.46772 z"
       transform="translate(-0.04724709,2.6513165)" />
    <path
       style="fill:#e0e0e0;fill-opacity:0.48089199;fill-rule:evenodd;stroke:#000000;stroke-width:0.1;stroke-linecap:butt;stroke-linejoin:miter;stroke-miterlimit:4;stroke-dasharray:none;stroke-opacity:1"
       d="m 29.430351,36.515062 c 0.0474,-0.0976 0.142063,-0.292485 0.222695,-0.581706 0.08063,-0.289221 0.147559,-0.674047 0.189296,-0.982977 0.04174,-0.30893 0.05846,-0.542972 0.03619,-0.821147 -0.02227,-0.278174 -0.08359,-0.601514 -0.105842,-0.985605 -0.02225,-0.384091 -0.0055,-0.829823 0.03345,-1.197247 0.03899,-0.367424 0.100272,-0.657144 0.172649,-0.89926 0.07238,-0.242116 0.155988,-0.437207 0.264454,-0.698639 0.108465,-0.261432 0.242319,-0.590488 0.482115,-0.960592 0.239797,-0.370104 0.595532,-0.793597 0.858637,-1.128514 0.263106,-0.334917 0.444016,-0.594977 0.574765,-0.848186 0.130748,-0.253209 0.214369,-0.50407 0.233806,-0.696006 0.01944,-0.191936 -0.02517,-0.32574 -0.1781,-0.512045 -0.152935,-0.186304 -0.414947,-0.426017 -0.807479,-0.704413 -0.392532,-0.278395 -0.915911,-0.595763 -1.291766,-0.81571 -0.375854,-0.219947 -0.604114,-0.342428 -0.740457,-0.403703 -0.136344,-0.06128 -0.180874,-0.06128 -0.144492,0.07869 0.03638,0.139964 0.152619,0.416717 0.289088,0.653457 0.13647,0.23674 0.292304,0.431532 0.417582,0.698757 0.125279,0.267226 0.219921,0.606824 0.281195,1.024526 0.06128,0.417702 0.0891,0.913007 0.09478,1.380829 0.0057,0.467823 -0.01122,0.918611 -0.0502,1.305682 -0.03897,0.387071 -0.100184,0.715387 -0.161435,0.968811 -0.06125,0.253423 -0.122445,0.431441 -0.186563,0.696245 -0.06412,0.264804 -0.130816,0.614971 -0.169911,0.968713 -0.03909,0.353742 -0.05005,0.698664 -0.0473,0.951798 0.0027,0.253134 0.01949,0.409509 2.6e-5,0.576645 -0.01947,0.167135 -0.07507,0.34505 -0.125237,0.545704 -0.05017,0.200654 -0.09464,0.422985 -0.133214,0.637569 -0.03858,0.214584 -0.0728,0.431324 -0.103441,0.615181 -0.03064,0.183856 -0.05844,0.339543 -0.06682,0.53189 -0.0084,0.192347 0.0027,0.420195 0.02509,0.542854 0.02235,0.12266 0.05572,0.139343 0.07237,0.147669 0.01665,0.0083 0.01666,0.0083 0.06406,-0.08927 z"
       id="path5263"
       inkscape:connector-curvature="0"
       inkscape:path-effect="#path-effect5265"
       inkscape:original-d="m 29.382945,36.612663 c 0.09492,-0.195149 0.189579,-0.390033 0.283972,-0.584653 0.06697,-0.383839 0.1339,-0.768664 0.200453,-1.152601 0.01696,-0.233942 0.03367,-0.467985 0.05011,-0.701583 -0.06091,-0.322826 -0.122235,-0.646165 -0.183748,-0.968851 0.01696,-0.445429 0.03367,-0.891162 0.05011,-1.336347 0.06148,-0.289629 0.122764,-0.57935 0.183748,-0.868627 0.0837,-0.194942 0.16731,-0.390033 0.250566,-0.584652 0.133681,-0.328245 0.267533,-0.657302 0.400905,-0.985555 0.33959,-0.417467 0.701847,-0.835482 1.052375,-1.252826 0.178321,-0.250658 0.356623,-0.512532 0.534537,-0.7684 0.08369,-0.250534 0.167309,-0.501396 0.250566,-0.751697 -0.04423,-0.133728 -0.08883,-0.267533 -0.133636,-0.400904 -0.261125,-0.239409 -0.523137,-0.479122 -0.785103,-0.718286 -0.523163,-0.317662 -1.046541,-0.63503 -1.57021,-0.952148 -0.22806,-0.122781 -0.456319,-0.245262 -0.684876,-0.367496 -0.0443,-2.64e-4 -0.08883,-2.64e-4 -0.133636,0 0.11789,0.279795 0.234127,0.556547 0.350792,0.835218 0.156245,0.194711 0.312079,0.389503 0.46772,0.584652 0.09494,0.339447 0.189582,0.679045 0.283975,1.018964 0.02812,0.495557 0.05595,0.990862 0.08352,1.486688 -0.01646,0.439836 -0.03314,0.890633 -0.05011,1.336347 -0.06102,0.328457 -0.122235,0.656773 -0.183748,0.985557 -0.06104,0.178078 -0.122235,0.356095 -0.183748,0.534538 -0.06667,0.351152 -0.133371,0.701318 -0.200451,1.052375 -0.01087,0.356402 -0.02201,0.701318 -0.03341,1.052372 0.0114,0.155766 0.03367,0.31155 0.05011,0.467723 -0.0555,0.178181 -0.111098,0.356095 -0.167042,0.53454 -0.04436,0.222853 -0.08883,0.445183 -0.133635,0.668174 -0.03319,0.206036 -0.06655,0.422912 -0.100227,0.634764 -0.02762,0.155863 -0.05542,0.31155 -0.08352,0.467723 0.01143,0.22847 0.02254,0.456318 0.03341,0.684876 0.03371,0.01646 0.06708,0.03314 0.100227,0.05011 z"
       transform="translate(0,2.6513165)" />
    <path
       style="fill:#e0e0e0;fill-opacity:0.48089199;fill-rule:evenodd;stroke:#000000;stroke-width:0.1;stroke-linecap:butt;stroke-linejoin:miter;stroke-miterlimit:4;stroke-dasharray:none;stroke-opacity:1"
       d="m 41.52716,24.276446 c -0.116771,0.0417 -0.350629,0.125225 -0.626475,0.272879 -0.275845,0.147655 -0.592795,0.358954 -0.89918,0.556716 -0.306386,0.197762 -0.601213,0.381334 -0.826805,0.523371 -0.225591,0.142037 -0.381335,0.242158 -0.498397,0.353585 -0.117063,0.111427 -0.194864,0.233685 -0.236721,0.353562 -0.04186,0.119877 -0.04741,0.236514 -0.04183,0.38988 0.0056,0.153366 0.02224,0.342233 0.08912,0.515042 0.06689,0.172809 0.18367,0.32852 0.336821,0.526225 0.153151,0.197704 0.342415,0.437068 0.526169,0.684857 0.183755,0.247789 0.361909,0.503886 0.514136,0.722539 0.152226,0.218654 0.282087,0.404977 0.393455,0.608208 0.111367,0.203231 0.205998,0.42589 0.297899,0.679303 0.0919,0.253414 0.180939,0.537223 0.244527,0.830645 0.06359,0.293422 0.101608,0.596 0.12802,0.825194 0.02641,0.229194 0.04116,0.384596 0.04166,0.670347 4.97e-4,0.28575 -0.01326,0.700494 -0.02752,0.958897 -0.01426,0.258404 -0.02901,0.359721 -0.04478,0.456317 -0.01577,0.09659 -0.03245,0.187865 -0.04329,0.250923 -0.01084,0.06306 -0.01575,0.0974 0.0031,0.188148 0.01884,0.09075 0.0608,0.235174 0.09182,0.343979 0.03102,0.108805 0.05068,0.180579 0.07286,0.260907 0.02218,0.08033 0.04672,0.168705 0.07185,0.269207 0.02513,0.100502 0.05067,0.21249 0.07629,0.33219 0.02562,0.1197 0.05117,0.246456 0.0684,0.342464 0.01724,0.09601 0.02609,0.160877 0.0389,0.211688 0.01282,0.05081 0.02949,0.0871 0.05228,0.110334 0.02279,0.02323 0.05124,0.03304 0.07925,0.01919 0.02802,-0.01385 0.05573,-0.05146 0.07087,-0.097 0.01515,-0.04554 0.01814,-0.100114 0.0152,-0.215301 -0.0029,-0.115187 -0.01184,-0.293275 -0.02907,-0.4295 -0.01723,-0.136225 -0.04286,-0.231838 -0.07333,-0.392085 -0.03047,-0.160248 -0.06598,-0.386083 -0.095,-0.592213 -0.02902,-0.20613 -0.05168,-0.393329 -0.08906,-0.628887 -0.03738,-0.235558 -0.08961,-0.520374 -0.1206,-0.772792 -0.03099,-0.252418 -0.04084,-0.473063 -0.06052,-0.711602 -0.01968,-0.238539 -0.04924,-0.495738 -0.07532,-0.721058 -0.02607,-0.225321 -0.04874,-0.419405 -0.07382,-0.609754 -0.02509,-0.190348 -0.05268,-0.377592 -0.09989,-0.601842 -0.04722,-0.22425 -0.114227,-0.486386 -0.160969,-0.687148 -0.04674,-0.200761 -0.07334,-0.340632 -0.09927,-0.713025 -0.02593,-0.372393 -0.05132,-0.979154 -0.05293,-1.465775 -0.0016,-0.48662 0.02084,-0.85983 0.06123,-1.131229 0.04039,-0.271398 0.0989,-0.444141 0.192062,-0.684678 0.09316,-0.240538 0.221462,-0.550137 0.311937,-0.753323 0.09047,-0.203186 0.143424,-0.300724 0.199018,-0.398006 0.05559,-0.09728 0.114249,-0.195041 0.183723,-0.310367 0.06947,-0.115326 0.150467,-0.249384 0.190742,-0.316046 0.04028,-0.06666 0.04021,-0.06666 -0.07656,-0.02496 z"
       id="path5267"
       inkscape:connector-curvature="0"
       inkscape:path-effect="#path-effect5269"
       inkscape:original-d="m 41.643932,24.234742 c -0.233596,0.08326 -0.467455,0.166779 -0.701583,0.250565 -0.31755,0.211612 -0.634499,0.422912 -0.952148,0.634765 -0.295126,0.18366 -0.589954,0.367231 -0.88533,0.551244 -0.155805,0.100066 -0.311549,0.200187 -0.46772,0.300678 -0.07784,0.122475 -0.155643,0.244732 -0.233862,0.367495 -0.0053,0.11696 -0.01087,0.233596 -0.01669,0.350791 0.01701,0.1895 0.03367,0.378367 0.05011,0.567949 0.117342,0.15584 0.234127,0.31155 0.350792,0.46772 0.189632,0.239231 0.378897,0.478594 0.567947,0.718288 0.178469,0.255905 0.356624,0.512001 0.53454,0.768401 0.122788,0.18352 0.256397,0.367231 0.384199,0.551243 0.09495,0.222525 0.189582,0.445183 0.283975,0.668173 0.0894,0.283875 0.178443,0.567683 0.267268,0.851922 0.03833,0.302667 0.07635,0.605245 0.114126,0.908267 0.01506,0.155374 0.0298,0.310777 0.04429,0.466563 -0.01355,0.415751 -0.02729,0.830496 -0.04134,1.24614 -0.0145,0.101187 -0.02926,0.202504 -0.04429,0.304152 -0.01651,0.09155 -0.0332,0.182819 -0.0502,0.274624 -0.0047,0.0343 -0.0096,0.06864 -0.01476,0.103354 0.04295,0.146667 0.08491,0.291092 0.126976,0.437034 0.01998,0.07167 0.03964,0.143446 0.05906,0.215564 0.02492,0.08854 0.04948,0.176913 0.07382,0.265766 0.0259,0.11217 0.05145,0.224157 0.07678,0.336634 0.0259,0.126932 0.05145,0.253688 0.07678,0.380929 0.0091,0.0648 0.01799,0.129664 0.02658,0.194895 0.01707,0.03628 0.03373,0.07258 0.0502,0.109259 0.0289,0.0096 0.05735,0.01942 0.08564,0.02953 0.02767,-0.03747 0.05539,-0.07507 0.08268,-0.11221 0.0032,-0.05397 0.0062,-0.10854 0.0089,-0.162412 -0.0085,-0.176532 -0.01746,-0.354618 -0.02658,-0.531529 -0.02529,-0.09561 -0.05092,-0.191222 -0.07678,-0.286435 -0.0351,-0.225245 -0.0706,-0.451081 -0.106304,-0.676225 -0.02236,-0.187103 -0.04501,-0.374303 -0.06792,-0.561057 -0.05184,-0.284382 -0.104072,-0.569198 -0.156507,-0.8534 -0.0096,-0.220589 -0.01942,-0.441235 -0.02953,-0.661459 -0.02923,-0.256876 -0.0588,-0.514074 -0.08859,-0.770715 -0.02236,-0.194 -0.04502,-0.388085 -0.06792,-0.581729 -0.02726,-0.187063 -0.05486,-0.374306 -0.08268,-0.561059 -0.06659,-0.261784 -0.133601,-0.52392 -0.2008,-0.785482 -0.0263,-0.139938 -0.05289,-0.27981 -0.07973,-0.419317 -0.02506,-0.605232 -0.05044,-1.211993 -0.07605,-1.817592 0.02252,-0.367607 0.04481,-0.740826 0.06682,-1.11084 0.05868,-0.172747 0.117194,-0.345488 0.175395,-0.517835 0.128095,-0.308726 0.256397,-0.618325 0.384199,-0.927091 0.05311,-0.09761 0.106058,-0.195149 0.158691,-0.292326 0.05854,-0.09739 0.117195,-0.195149 0.175395,-0.292326 0.08075,-0.133473 0.16174,-0.267534 0.242213,-0.400904 z"
       transform="translate(0,2.6513165)" />
    <path
       style="fill:#cdcdcd;fill-opacity:1;fill-rule:evenodd;stroke:#000000;stroke-width:0.1;stroke-linecap:butt;stroke-linejoin:miter;stroke-miterlimit:4;stroke-dasharray:none;stroke-opacity:1"
       d="m 17.735328,36.67673 c -0.02955,-0.05123 -0.08861,-0.153594 -0.283748,-0.715427 -0.195135,-0.561833 -0.525386,-1.58011 -0.71633,-2.249446 -0.190944,-0.669336 -0.242136,-0.988301 -0.309043,-1.372027 -0.06691,-0.383727 -0.149646,-0.832879 -0.157505,-1.446948 -0.0079,-0.614069 0.05911,-1.394005 0.128014,-1.958946 0.06891,-0.564942 0.139804,-0.915486 0.265763,-1.277556 0.125959,-0.362071 0.307231,-0.736436 0.56501,-1.15358 0.25778,-0.417143 0.592731,-0.878193 0.956826,-1.293432 0.364096,-0.415239 0.758077,-0.785581 1.09068,-1.098503 0.332603,-0.312923 0.604462,-0.569022 1.017616,-0.854276 0.413154,-0.285253 0.968863,-0.600549 1.52386,-0.90166 0.554997,-0.301112 1.110464,-0.588694 1.960585,-0.994072 0.85012,-0.405379 1.996514,-0.929332 2.693372,-1.226557 0.696857,-0.297225 0.944971,-0.368115 1.222162,-0.437802 0.27719,-0.06969 0.569314,-0.135029 0.777864,-0.152705 0.20855,-0.01768 0.326789,0.01385 0.436915,0.05516 0.110127,0.0413 0.212652,0.09257 0.371921,0.312779 0.15927,0.220214 0.376042,0.610404 0.580806,0.952992 0.204764,0.342588 0.397645,0.637814 0.628022,0.921356 0.230378,0.283543 0.498054,0.555155 0.836681,0.844561 0.338627,0.289406 0.748098,0.596509 1.043402,0.803217 0.295304,0.206708 0.476438,0.313026 0.697014,0.368125 0.220576,0.0551 0.480431,0.05903 0.643803,0.03138 0.163372,-0.02766 0.230374,-0.08678 0.281405,-0.108312 0.05103,-0.02154 0.08661,-0.0057 0.137624,0.03352 0.05101,0.03924 0.118178,0.102455 0.206804,0.163501 0.08863,0.06105 0.19888,0.120111 0.350469,0.147646 0.151589,0.02753 0.344679,0.02359 0.462705,-0.02571 0.118027,-0.04931 0.161396,-0.143929 0.206587,-0.18118 0.04519,-0.03725 0.0926,-0.0175 0.133798,0.03152 0.0412,0.04902 0.07673,0.127982 0.139923,0.177295 0.06319,0.04931 0.153611,0.06897 0.251982,0.06697 0.09837,-0.002 0.204907,-0.02567 0.277684,-0.05129 0.07278,-0.02562 0.11227,-0.05327 0.188616,-0.09241 0.07635,-0.03914 0.191402,-0.09072 0.264131,-0.141911 0.07273,-0.05119 0.104318,-0.102527 0.11997,-0.141794 0.01565,-0.03927 0.01565,-0.067 0.03713,-0.06697 0.02148,2.4e-5 0.0652,0.02785 0.138005,0.05932 0.0728,0.03148 0.175334,0.06697 0.254033,0.09451 0.0787,0.02755 0.133909,0.04726 0.236146,0.04528 0.102237,-0.002 0.252263,-0.02567 0.460679,-0.104342 0.208417,-0.07867 0.476684,-0.212801 0.838622,-0.482307 0.361937,-0.269506 0.8192,-0.675524 1.195087,-1.078994 0.375887,-0.403471 0.671362,-0.805316 0.891787,-1.114314 0.220425,-0.308997 0.366211,-0.525706 0.48818,-0.724416 0.121969,-0.19871 0.220538,-0.380077 0.326806,-0.513822 0.106268,-0.133745 0.220649,-0.220518 0.364121,-0.265681 0.143473,-0.04516 0.317161,-0.04911 0.5767,5.4e-5 0.259539,0.04916 0.606558,0.151693 0.876211,0.232393 0.269653,0.0807 0.46267,0.139786 0.999697,0.371909 0.537027,0.232123 1.419739,0.638013 2.102822,0.947073 0.683084,0.30906 1.167431,0.521701 1.570931,0.730344 0.4035,0.208643 0.726437,0.413432 1.177195,0.689004 0.450759,0.275572 1.029658,0.622125 1.457789,0.920439 0.42813,0.298315 0.70967,0.552097 1.020696,0.853281 0.311026,0.301183 0.653583,0.651615 0.940989,0.984293 0.287405,0.332678 0.519702,0.647656 0.755944,1.043354 0.236242,0.395697 0.47638,0.872037 0.635852,1.283474 0.159472,0.411437 0.238199,0.757836 0.287435,1.088628 0.04924,0.330791 0.06891,0.645596 0.08664,1.110427 0.01773,0.464832 0.03347,1.078559 -0.0118,1.657425 -0.04527,0.578867 -0.151528,1.12198 -0.289359,1.663498 -0.137832,0.541518 -0.307039,1.08062 -0.447,1.541916 -0.139961,0.461297 -0.249837,0.841935 -0.332552,1.153079 -0.08272,0.311145 -0.137791,0.551119 -0.192824,0.683119 -0.05503,0.132001 -0.110081,0.155592 -0.139786,0.119823 -0.0297,-0.03577 -0.03361,-0.129712 -0.0081,-0.316384 0.02556,-0.186671 0.08082,-0.466964 0.131989,-0.708996 0.05116,-0.242031 0.09846,-0.44699 0.161494,-0.722761 0.06303,-0.275771 0.141704,-0.621923 0.253871,-1.003656 0.112168,-0.381732 0.257976,-0.799452 0.370124,-1.275644 0.112148,-0.476193 0.190953,-1.01207 0.224398,-1.462763 0.03344,-0.450692 0.02163,-0.817058 -0.05512,-1.305033 -0.07675,-0.487975 -0.218586,-1.098676 -0.415014,-1.652914 -0.196428,-0.554239 -0.449289,-1.05601 -0.732716,-1.473275 -0.283426,-0.417266 -0.598472,-0.752001 -0.885882,-1.043348 -0.287409,-0.291346 -0.547273,-0.539398 -0.913409,-0.809084 -0.366136,-0.269685 -0.838597,-0.561036 -1.273663,-0.787436 -0.435067,-0.2264 -0.832667,-0.387802 -1.249558,-0.529423 -0.416891,-0.141622 -0.8548,-0.263921 -1.374617,-0.370253 -0.519817,-0.106332 -1.121975,-0.196853 -1.714606,-0.220496 -0.592631,-0.02364 -1.17513,0.01965 -1.683124,0.106265 -0.507994,0.08662 -0.940881,0.216481 -1.27369,0.397595 -0.332809,0.181114 -0.564937,0.413242 -0.726891,0.558668 -0.161954,0.145426 -0.253396,0.203777 -0.43891,0.294569 -0.185515,0.09079 -0.463132,0.213073 -0.746288,0.367023 -0.283156,0.153949 -0.570248,0.338789 -0.901178,0.553498 -0.330929,0.21471 -0.704568,0.458558 -0.938913,0.641645 -0.234346,0.183086 -0.32876,0.305038 -0.393736,0.379913 -0.06498,0.07488 -0.100323,0.102366 -0.153843,0.195496 -0.05352,0.09313 -0.123805,0.24932 -0.243989,0.395178 -0.120184,0.145857 -0.289143,0.279452 -0.570982,0.419406 -0.281839,0.139954 -0.674887,0.285383 -0.950255,0.38096 -0.275368,0.09558 -0.41759,0.136747 -0.535876,0.144664 -0.118286,0.0079 -0.204719,-0.01958 -0.277714,-0.07286 -0.07299,-0.05328 -0.13194,-0.131869 -0.171311,-0.22445 -0.03937,-0.09258 -0.05907,-0.198943 -0.0797,-0.262798 -0.02063,-0.06386 -0.04626,-0.08948 -0.06975,-0.101298 -0.02349,-0.01181 -0.04711,-0.01181 -0.06899,0.04776 -0.02187,0.05957 -0.04134,0.176366 -0.09253,0.284773 -0.0512,0.108407 -0.133665,0.206587 -0.202616,0.261836 -0.06895,0.05525 -0.123907,0.06702 -0.27624,0.04329 -0.152333,-0.02373 -0.398999,-0.08246 -0.702342,-0.194734 -0.303343,-0.112271 -0.661356,-0.277508 -0.913425,-0.435051 -0.252068,-0.157543 -0.397699,-0.307111 -0.50206,-0.442994 -0.10436,-0.135882 -0.167358,-0.257938 -0.337257,-0.428096 -0.169898,-0.170159 -0.452099,-0.39274 -0.701585,-0.58575 -0.249486,-0.19301 -0.4789,-0.366076 -0.827371,-0.590517 -0.348472,-0.224441 -0.820854,-0.503934 -1.10824,-0.659456 -0.287385,-0.155522 -0.389736,-0.187013 -0.456661,-0.204744 -0.06693,-0.01773 -0.09837,-0.02166 -0.171743,-0.08115 -0.07337,-0.05949 -0.186725,-0.17284 -0.350108,-0.318508 -0.163383,-0.145668 -0.375994,-0.322844 -0.608225,-0.440953 -0.23223,-0.11811 -0.484183,-0.177161 -0.791424,-0.246094 -0.307242,-0.06893 -0.669192,-0.147618 -1.031487,-0.19095 -0.362295,-0.04333 -0.724326,-0.0512 -1.133945,-0.02364 -0.409619,0.02756 -0.866014,0.09051 -1.354392,0.190934 -0.488379,0.100423 -1.00776,0.238138 -1.460657,0.379904 -0.452897,0.141766 -0.838516,0.287357 -1.287578,0.513842 -0.449062,0.226486 -0.960481,0.533338 -1.446891,0.901567 -0.48641,0.36823 -0.946788,0.79713 -1.311099,1.214573 -0.36431,0.417443 -0.631885,0.82274 -0.846566,1.238273 -0.214682,0.415534 -0.375988,0.840436 -0.496129,1.228392 -0.120142,0.387956 -0.198828,0.738108 -0.252017,1.102484 -0.05319,0.364376 -0.08072,0.742019 -0.06695,1.167444 0.01378,0.425426 0.06886,0.897543 0.145649,1.336666 0.07679,0.439123 0.175175,0.844462 0.278026,1.194266 0.102852,0.349803 0.208183,0.638488 0.310581,0.98111 0.102397,0.342622 0.200778,0.736146 0.265759,1.066917 0.06498,0.330772 0.09646,0.598379 0.118125,0.803171 0.02166,0.204793 0.03346,0.346412 0.03938,0.417402 0.0059,0.07099 0.0059,0.07099 -0.02364,0.01976 z"
       id="path5271"
       inkscape:connector-curvature="0"
       inkscape:path-effect="#path-effect5273"
       inkscape:original-d="m 17.764881,36.727955 c -0.05879,-0.102632 -0.117853,-0.204999 -0.177177,-0.307104 -0.338061,-1.019175 -0.661193,-2.039761 -0.992187,-3.059245 -0.05091,-0.319133 -0.102104,-0.638098 -0.153553,-0.956752 -0.08236,-0.448807 -0.1651,-0.897959 -0.248047,-1.346541 0.06717,-0.779479 0.134131,-1.559415 0.2008,-2.338727 0.07111,-0.350551 0.142006,-0.701095 0.212612,-1.051247 0.18122,-0.373976 0.362491,-0.748342 0.543341,-1.122117 0.334646,-0.460531 0.669597,-0.921581 1.003999,-1.381975 0.393734,-0.370126 0.787715,-0.740468 1.181175,-1.110305 0.271747,-0.256008 0.543606,-0.512107 0.815012,-0.767764 0.55486,-0.314929 1.110569,-0.630225 1.665457,-0.94494 0.555103,-0.287522 1.11057,-0.575104 1.665458,-0.862258 1.145351,-0.523621 2.291745,-1.047574 3.43722,-1.570964 0.248243,-0.07112 0.496358,-0.142006 0.744141,-0.212612 0.30698,-0.06711 0.598728,-0.134131 0.897694,-0.200799 0.118261,0.0312 0.2365,0.06273 0.354351,0.09449 0.102478,0.05084 0.205002,0.102104 0.307107,0.153552 0.216591,0.389121 0.433361,0.779312 0.649648,1.169364 0.193233,0.295098 0.386114,0.590324 0.578776,0.885882 0.268054,0.271465 0.535731,0.543076 0.803198,0.815011 0.409742,0.306843 0.819213,0.613947 1.228423,0.921317 0.181359,0.10603 0.362493,0.212347 0.543341,0.318917 0.260006,0.01154 0.51998,0.0076 0.779576,0.01181 0.06713,-0.05926 0.13413,-0.118382 0.2008,-0.177176 0.03555,0.01542 0.07113,0.03123 0.106304,0.04725 0.06697,0.06251 0.134131,0.125727 0.200801,0.188988 0.110495,0.05879 0.220749,0.117853 0.330729,0.177176 0.193024,-0.0042 0.386114,-0.0081 0.578776,-0.01181 0.04351,-0.09463 0.08688,-0.189252 0.129929,-0.283482 0.04735,0.01936 0.09476,0.03911 0.141742,0.05906 0.0356,0.07826 0.07113,0.157226 0.106305,0.236235 0.09096,0.01945 0.181379,0.03911 0.271671,0.05906 0.106339,-0.02384 0.212876,-0.04751 0.318916,-0.07087 0.03952,-0.02774 0.07901,-0.05539 0.118118,-0.08268 0.113569,-0.05106 0.228626,-0.102633 0.342542,-0.153553 0.03167,-0.0513 0.06326,-0.102633 0.09449,-0.153552 2.64e-4,-0.02766 2.64e-4,-0.05539 0,-0.08268 0.04316,0.02703 0.08688,0.05486 0.129929,0.08268 0.10247,0.03511 0.205001,0.07061 0.307104,0.106305 0.0553,0.01939 0.110509,0.03911 0.165365,0.05906 0.149471,-0.02382 0.299497,-0.04751 0.448847,-0.07087 0.267464,-0.133864 0.535731,-0.267998 0.803201,-0.4016 0.456443,-0.405321 0.913707,-0.811338 1.370163,-1.216611 0.295378,-0.401618 0.590852,-0.803464 0.885881,-1.204799 0.145835,-0.216653 0.291621,-0.433362 0.437036,-0.649647 0.09856,-0.181123 0.197127,-0.362491 0.295293,-0.54334 0.114247,-0.08673 0.228627,-0.173504 0.34254,-0.259859 0.173056,-0.0042 0.346745,-0.0081 0.519719,-0.01181 0.346202,0.101944 0.693221,0.204472 1.039434,0.307106 0.193095,0.05877 0.386114,0.117853 0.578776,0.177176 0.881441,0.40492 1.764154,0.810809 2.645833,1.216611 0.484481,0.212318 0.968828,0.424959 1.452846,0.637835 0.323038,0.20442 0.645975,0.409209 0.968565,0.614211 0.578917,0.34614 1.157817,0.692692 1.736328,1.039435 0.279771,0.247748 0.559353,0.503703 0.838634,0.755952 0.342789,0.350133 0.685345,0.700566 1.027623,1.051246 0.232564,0.314718 0.46486,0.629696 0.696894,0.944941 0.24047,0.476209 0.480608,0.952549 0.720516,1.429222 0.07903,0.34629 0.157756,0.69269 0.236236,1.039434 0.01995,0.314892 0.03964,0.629696 0.05906,0.944941 0.01603,0.614429 0.03176,1.228156 0.04725,1.842633 -0.106085,0.543303 -0.212347,1.086416 -0.318916,1.630024 -0.169132,0.53944 -0.338341,1.078542 -0.507907,1.61821 -0.113983,0.381873 -0.220221,0.763561 -0.33073,1.145738 -0.0549,0.240107 -0.109976,0.480081 -0.165364,0.720519 -0.05493,0.02339 -0.109977,0.04698 -0.165365,0.07087 -0.0037,-0.09531 -0.0076,-0.189254 -0.0118,-0.283482 0.05524,-0.279062 0.110508,-0.559356 0.165364,-0.838637 0.04746,-0.204777 0.09476,-0.409736 0.14174,-0.614209 0.08282,-0.346221 0.157756,-0.693222 0.236236,-1.039437 0.145815,-0.41724 0.291621,-0.834961 0.437036,-1.252045 0.07895,-0.535321 0.157756,-1.071198 0.236234,-1.606399 -0.01154,-0.366226 -0.02336,-0.732592 -0.03543,-1.098492 -0.141378,-0.610113 -0.283218,-1.220814 -0.425226,-1.830824 -0.247702,-0.500137 -0.503703,-1.000326 -0.755951,-1.500092 -0.314651,-0.33486 -0.629695,-0.669597 -0.944941,-1.003998 -0.259588,-0.248306 -0.519451,-0.496359 -0.779576,-0.744141 -0.472215,-0.291628 -0.944676,-0.582978 -1.41741,-0.87407 -0.39746,-0.161717 -0.79506,-0.323119 -1.192988,-0.484282 -0.436917,-0.118422 -0.873805,-0.244374 -1.311106,-0.366164 -0.602376,-0.09086 -1.204534,-0.181379 -1.807196,-0.271671 -0.582663,0.04306 -1.165162,0.08636 -1.748142,0.129929 -0.433041,0.129728 -0.865928,0.259595 -1.299292,0.389789 -0.232204,0.232202 -0.464331,0.464331 -0.696894,0.696893 -0.09139,0.05822 -0.18283,0.116573 -0.274643,0.175257 -0.279228,0.122842 -0.556845,0.245124 -0.835662,0.368084 -0.287483,0.184998 -0.574575,0.369837 -0.862259,0.555152 -0.374174,0.244107 -0.747813,0.487955 -1.122116,0.732329 -0.09431,0.121891 -0.188722,0.243845 -0.283483,0.366165 -0.03526,0.02736 -0.0706,0.05486 -0.106304,0.08268 -0.07119,0.158526 -0.141478,0.314715 -0.212611,0.47247 -0.169381,0.133872 -0.338339,0.267468 -0.507908,0.401598 -0.394136,0.145667 -0.787186,0.291092 -1.181174,0.437036 -0.157353,0.04308 -0.298966,0.08635 -0.448847,0.129929 -0.08654,-0.02788 -0.172974,-0.05538 -0.259858,-0.08268 -0.05891,-0.07916 -0.117853,-0.157755 -0.177178,-0.236236 -0.01942,-0.106513 -0.03911,-0.212876 -0.05906,-0.318915 -0.02331,-0.01992 -0.04698,-0.04751 -0.07087,-0.07087 -0.02336,-2.64e-4 -0.04698,-2.64e-4 -0.07087,0 -0.01963,0.119177 -0.03911,0.235972 -0.05906,0.354351 -0.08263,0.09842 -0.1651,0.196599 -0.248047,0.295297 -0.05502,0.01159 -0.109977,0.02336 -0.165364,0.03543 -0.249164,-0.05965 -0.49583,-0.11838 -0.744141,-0.177176 -0.358301,-0.165756 -0.716314,-0.330994 -1.07487,-0.496094 -0.14546,-0.149928 -0.291092,-0.299495 -0.437033,-0.448847 -0.06273,-0.122317 -0.125728,-0.244372 -0.188989,-0.366162 -0.275114,-0.220569 -0.558824,-0.441237 -0.838634,-0.661459 -0.216313,-0.169587 -0.448583,-0.338868 -0.673272,-0.507905 -0.472292,-0.279861 -0.944674,-0.559355 -1.41741,-0.838635 -0.102122,-0.03177 -0.204473,-0.06326 -0.307105,-0.09449 -0.03128,-0.0042 -0.06273,-0.0081 -0.0945,-0.01181 -0.114742,-0.115271 -0.228094,-0.228625 -0.34254,-0.342541 -0.212347,-0.177441 -0.424958,-0.354617 -0.637834,-0.531529 -0.251751,-0.05933 -0.503703,-0.118382 -0.755954,-0.177176 -0.362238,-0.07907 -0.724188,-0.157755 -1.08668,-0.236235 -0.36216,-0.0081 -0.72419,-0.01601 -1.086682,-0.02363 -0.456782,0.06278 -0.913178,0.125728 -1.370164,0.188988 -0.519788,0.137628 -1.039169,0.275343 -1.559151,0.413412 -0.385819,0.145501 -0.771437,0.291092 -1.157552,0.437034 -0.512002,0.307095 -1.023421,0.613947 -1.535528,0.921317 -0.460675,0.429157 -0.921053,0.858057 -1.381976,1.287482 -0.267627,0.405512 -0.535202,0.810809 -0.803199,1.216611 -0.161285,0.425278 -0.32259,0.850181 -0.484282,1.275668 -0.07854,0.350414 -0.157226,0.700566 -0.236235,1.051247 -0.02732,0.378045 -0.05486,0.755687 -0.08268,1.133928 0.05543,0.472559 0.110508,0.944676 0.165365,1.417412 0.09874,0.405469 0.197127,0.810808 0.295294,1.21661 0.114498,0.291227 0.212876,0.582449 0.318917,0.87407 0.09875,0.39366 0.197127,0.787185 0.295294,1.181176 0.03178,0.267595 0.06326,0.535202 0.09449,0.803199 0.01209,0.141599 0.02389,0.283218 0.03543,0.425222 z"
       transform="translate(0,2.6513165)" />
    <g
       id="g5456">
      <path
         sodipodi:nodetypes="ccccc"
         inkscape:connector-curvature="0"
         id="path5279"
         d="M 45.850086,3.8708117 35.102153,46.183059 35.309644,45.982467 46.05054,3.9209244 Z"
         style="fill:none;fill-rule:evenodd;stroke:#000000;stroke-width:0.26458332px;stroke-linecap:butt;stroke-linejoin:miter;stroke-opacity:1" />
      <path
         sodipodi:nodetypes="ccccc"
         inkscape:connector-curvature="0"
         id="path5279-5"
         d="m 45.812879,4.0237739 -9.014858,35.5795601 0.119793,0.03327 9.095518,-35.5627151 z"
         style="fill:none;fill-rule:evenodd;stroke:#000000;stroke-width:0.60000002;stroke-linecap:butt;stroke-linejoin:miter;stroke-miterlimit:4;stroke-dasharray:none;stroke-opacity:1" />
    </g>
  </g>
  <g
     inkscape:groupmode="layer"
     id="layer2"
     inkscape:label="Ebene 2"
     style="display:none"
     transform="translate(-7.3528451,-3.6601984)" />
</svg>
