<?xml version="1.0" encoding="UTF-8" standalone="no"?>
<svg
   xmlns:dc="http://purl.org/dc/elements/1.1/"
   xmlns:cc="http://creativecommons.org/ns#"
   xmlns:rdf="http://www.w3.org/1999/02/22-rdf-syntax-ns#"
   xmlns:svg="http://www.w3.org/2000/svg"
   xmlns="http://www.w3.org/2000/svg"
   xmlns:sodipodi="http://sodipodi.sourceforge.net/DTD/sodipodi-0.dtd"
   xmlns:inkscape="http://www.inkscape.org/namespaces/inkscape"
   width="44.458416mm"
   height="53.665817mm"
   viewBox="0 0 44.458416 53.665817"
   version="1.1"
   id="svg936"
   inkscape:version="1.0.1 (0767f8302a, 2020-10-17)"
   sodipodi:docname="PaS_horizontal_clean.svg">
  <defs
     id="defs930">
    <inkscape:path-effect
       effect="bspline"
       id="path-effect852"
       is_visible="true"
       weight="33.333333"
       steps="2"
       helper_size="0"
       apply_no_weight="true"
       apply_with_weight="true"
       only_selected="false"
       lpeversion="0" />
    <inkscape:path-effect
       effect="bspline"
       id="path-effect856"
       is_visible="true"
       weight="33.333333"
       steps="2"
       helper_size="0"
       apply_no_weight="true"
       apply_with_weight="true"
       only_selected="false"
       lpeversion="0" />
    <inkscape:path-effect
       effect="bspline"
       id="path-effect860"
       is_visible="true"
       weight="33.333333"
       steps="2"
       helper_size="0"
       apply_no_weight="true"
       apply_with_weight="true"
       only_selected="false"
       lpeversion="0" />
    <inkscape:path-effect
       effect="bspline"
       id="path-effect864"
       is_visible="true"
       weight="33.333333"
       steps="2"
       helper_size="0"
       apply_no_weight="true"
       apply_with_weight="true"
       only_selected="false"
       lpeversion="0" />
    <inkscape:path-effect
       effect="bspline"
       id="path-effect868"
       is_visible="true"
       weight="33.333333"
       steps="2"
       helper_size="0"
       apply_no_weight="true"
       apply_with_weight="true"
       only_selected="false"
       lpeversion="0" />
    <inkscape:path-effect
       effect="bspline"
       id="path-effect872"
       is_visible="true"
       weight="33.333333"
       steps="2"
       helper_size="0"
       apply_no_weight="true"
       apply_with_weight="true"
       only_selected="false"
       lpeversion="0" />
    <inkscape:path-effect
       effect="bspline"
       id="path-effect876"
       is_visible="true"
       weight="33.333333"
       steps="2"
       helper_size="0"
       apply_no_weight="true"
       apply_with_weight="true"
       only_selected="false"
       lpeversion="0" />
    <inkscape:path-effect
       effect="bspline"
       id="path-effect892"
       is_visible="true"
       weight="33.333333"
       steps="2"
       helper_size="0"
       apply_no_weight="true"
       apply_with_weight="true"
       only_selected="false"
       lpeversion="0" />
    <inkscape:path-effect
       effect="bspline"
       id="path-effect896"
       is_visible="true"
       weight="33.333333"
       steps="2"
       helper_size="0"
       apply_no_weight="true"
       apply_with_weight="true"
       only_selected="false"
       lpeversion="0" />
  </defs>
  <sodipodi:namedview
     id="base"
     pagecolor="#ffffff"
     bordercolor="#666666"
     borderopacity="1.0"
     inkscape:pageopacity="0.0"
     inkscape:pageshadow="2"
     inkscape:zoom="1.7852522"
     inkscape:cx="122.62904"
     inkscape:cy="135.45746"
     inkscape:document-units="mm"
     inkscape:current-layer="layer1"
     inkscape:document-rotation="0"
     showgrid="false"
     fit-margin-top="0"
     fit-margin-left="0"
     fit-margin-right="0"
     fit-margin-bottom="0"
     inkscape:window-width="1860"
     inkscape:window-height="1016"
     inkscape:window-x="60"
     inkscape:window-y="27"
     inkscape:window-maximized="1" />
  <metadata
     id="metadata933">
    <rdf:RDF>
      <cc:Work
         rdf:about="">
        <dc:format>image/svg+xml</dc:format>
        <dc:type
           rdf:resource="http://purl.org/dc/dcmitype/StillImage" />
        <dc:title></dc:title>
      </cc:Work>
    </rdf:RDF>
  </metadata>
  <g
     inkscape:label="Layer 1"
     inkscape:groupmode="layer"
     id="layer1"
     transform="translate(-7.3411088,-3.1686744)">
    <path
       sodipodi:nodetypes="cccccccccccccccccccccccccccccccccccccccccccccccccccccccc"
       inkscape:original-d="m 30.676982,25.661479 c -0.15712,-0.01576 -0.31429,-0.03148 -0.47149,-0.04715 -0.76588,-0.102215 -1.53183,-0.204384 -2.29778,-0.306504 -1.28907,-0.383447 -2.57827,-0.766872 -3.86735,-1.150202 -0.41114,-0.161187 -0.82233,-0.322329 -1.23355,-0.483419 -0.78343,-0.494578 -1.56689,-0.989105 -2.35042,-1.483594 -0.39446,-0.461239 -0.78897,-0.922421 -1.18354,-1.383577 -0.2111,-0.272317 -0.42224,-0.544578 -0.63344,-0.81681 -0.26667,-0.489022 -0.53338,-0.977989 -0.80014,-1.466925 -0.23718,-0.284558 -0.47437,-0.569031 -0.711671,-0.853533 -0.0608,-0.100238 -0.12175,-0.200424 -0.1827,-0.300573 -0.11586,-0.155245 -0.23178,-0.310457 -0.34772,-0.465594 -0.18462,-0.100238 -0.36934,-0.200459 -0.554,-0.300573 -0.18176,0.02518 -0.36362,0.0504 -0.54543,0.07567 -0.23573,0.07314 -0.47148,0.146318 -0.70734,0.219565 -0.52291,0.336095 -1.04571,0.672131 -1.56862,1.008266 -0.30004,0.333377 -0.60006,0.666737 -0.90016,1.000176 -0.31117,0.244476 -0.62229,0.488927 -0.9335,0.733462 -0.3334,0.411205 -0.66674,0.82232 -1.00018,1.233551 -0.4223001,0.544561 -0.8445401,1.089033 -1.2668801,1.63362 -0.26274,0.41746 -0.52554,0.834941 -0.7888,1.253068 -0.11393,0.310449 -0.22784,0.620746 -0.34183,0.931189 -0.0903,0.223949 -0.18069,0.447865 -0.27111,0.671869 -0.0707,0.263268 -0.1414,0.526448 -0.21217,0.789742 -0.0235,0.302555 -0.0471,0.605028 -0.0707,0.907613 0.0669,0.436152 0.13363,0.872204 0.20038,1.308378 0.0629,0.385035 0.12578,0.770049 0.1886,1.155144 0.0983,0.813351 0.1965,1.626585 0.29468,2.439948 0.11399,0.903682 0.22793,1.807321 0.34183,2.711053 0.0708,0.667922 0.14149,1.335837 0.21217,2.003822 0.10613,0.557917 0.21221,1.115806 0.31825,1.673781 0.30261,1.045152 0.62084,2.090213 0.93119,3.135392 0.0905,0.231653 0.1809301,0.463613 0.2711001,0.695444 0.19256,0.333639 0.3852,0.6678 0.57757,1.001911 0.41269,0.616704 0.82519,1.23349 1.23766,1.850588 0.23582,0.267163 0.47153,0.534305 0.70723,0.801529 0.29866,0.184621 0.59727,0.369284 0.89583,0.553998 0.389,0.168896 0.778,0.337851 1.16693,0.506847 0.35773,0.30243 0.71525,0.60494 1.07263,0.90761 0.38511,0.20821 0.77014,0.41644 1.15515,0.62472 0.18863,0.0903 0.377231,0.18069 0.565781,0.27111 0.68314,0.33659 1.41083,0.6733 2.11617,1.01003 0.62236,0.22221 1.24471,0.44447 1.867,0.66678 0.9335,0.46668 1.86704,0.93345 2.80049,1.40025 0.44456,0.0222 0.88909,0.0444 1.33357,0.0667 0.63898,0.2333 1.27805,0.4667 1.917,0.70012 0.72793,0.24443 1.45586,0.48893 2.18372,0.73346 1.02241,0.21665 2.04485,0.43337 3.06721,0.65012 1.133539,0.23887 2.267109,0.47781 3.40059,0.71679 0.989081,0.0889 1.978181,0.17776 2.967191,0.26671 0.387749,-0.0952 0.80691,-0.19045 1.210288,-0.28561 0.817182,0.2671 1.634541,0.53431 2.451741,0.80153 0.801539,0.29855 1.603099,0.59717 2.404581,0.89583 0.785839,0.0628 1.57167,0.12568 2.35744,0.18859 0.502938,0.0628 1.00589,0.12569 1.50876,0.1886 0.880089,-5e-5 1.76027,-5e-5 2.64033,0"
       inkscape:path-effect="#path-effect852"
       inkscape:connector-curvature="0"
       id="path850"
       d="m 30.676982,25.661479 c -0.157125,-0.01571 -0.314295,-0.03143 -0.775836,-0.09037 C 29.439605,25.512166 28.673655,25.409995 27.64614,25.167214 26.618626,24.924433 25.329426,24.541008 24.479313,24.26875 23.6292,23.996492 23.21801,23.83535 22.620679,23.507514 22.023349,23.179679 21.239887,22.685155 20.650882,22.207286 20.061878,21.729417 19.667371,21.268232 19.364536,20.901494 19.0617,20.534756 18.85056,20.262495 18.611625,19.881863 18.372689,19.50123 18.10598,19.012263 17.854011,18.625522 17.602043,18.238781 17.364852,17.954309 17.21578,17.761946 17.066707,17.569584 17.005796,17.469375 16.917392,17.34168 c -0.0884,-0.127694 -0.204322,-0.282907 -0.354591,-0.410586 -0.15027,-0.127678 -0.334991,-0.227898 -0.518183,-0.265376 -0.183192,-0.03748 -0.365051,-0.01225 -0.573819,0.03695 -0.208769,0.0492 -0.444518,0.122376 -0.823904,0.327038 -0.379386,0.204661 -0.902184,0.540701 -1.313664,0.875449 -0.41148,0.334748 -0.711502,0.668106 -1.017133,0.957069 -0.30563,0.288963 -0.61675,0.533413 -0.939062,0.861277 -0.322311,0.327863 -0.65565,0.738979 -1.033521,1.216875 -0.3778701,0.477895 -0.8001105,1.022367 -1.1426648,1.503382 -0.3425544,0.481015 -0.6053559,0.898495 -0.793947,1.262789 -0.1885911,0.364294 -0.3024983,0.674592 -0.4046591,0.941782 -0.1021609,0.267189 -0.1925197,0.491117 -0.2730799,0.734755 -0.08056,0.243638 -0.1512651,0.506816 -0.198418,0.789743 -0.047153,0.282926 -0.070715,0.585402 -0.0491,0.954779 0.021615,0.369377 0.088395,0.805422 0.1532279,1.216025 0.064833,0.410604 0.1276941,0.795621 0.2082465,1.394843 0.080552,0.599223 0.1787689,1.412455 0.2848566,2.270978 0.1060877,0.858522 0.2200253,1.762161 0.3123607,2.547989 0.092335,0.785828 0.1630557,1.45374 0.251461,2.066693 0.088405,0.612953 0.1944816,1.170843 0.4024126,1.971338 0.2079309,0.800495 0.5189435,1.8477 0.7193114,2.486141 0.2003673,0.63844 0.2907923,0.870403 0.4321593,1.153153 0.141368,0.28275 0.334003,0.616913 0.636537,1.092326 0.302534,0.475413 0.715036,1.092198 1.039239,1.534295 0.324203,0.442097 0.559915,0.709237 0.827102,0.935166 0.267187,0.225929 0.565796,0.410594 0.909582,0.587397 0.343786,0.176803 0.732784,0.345762 1.106061,0.581523 0.373278,0.235762 0.730794,0.538276 1.102093,0.793661 0.371299,0.255385 0.756329,0.463615 1.043145,0.612916 0.286816,0.149302 0.475423,0.239679 0.913329,0.448865 0.437907,0.209187 1.161472,0.554539 1.825328,0.834004 0.663855,0.279465 1.286203,0.50173 2.064094,0.846225 0.777891,0.344494 1.711431,0.811266 2.400449,1.055754 0.689019,0.244488 1.133548,0.266722 1.675269,0.394516 0.541721,0.127795 1.180791,0.361194 1.864232,0.60012 0.683441,0.238925 1.411372,0.48342 2.28651,0.714011 0.875138,0.230592 1.897579,0.447306 2.975528,0.675121 1.077949,0.227814 2.211519,0.466753 3.272806,0.630666 1.061287,0.163914 2.050382,0.25282 2.739177,0.251421 0.688795,-0.0014 1.107137,-0.100122 1.717405,-0.01414 0.610269,0.08598 1.427627,0.353193 2.236994,0.63608 0.809368,0.282887 1.610927,0.581509 2.404596,0.762242 0.793669,0.180733 1.579501,0.243598 2.223853,0.306462 0.644352,0.06286 1.147306,0.125735 1.838788,0.157165 0.691483,0.03143 1.571664,0.03143 2.451724,0.03143"
       style="fill:none;fill-rule:evenodd;stroke:#000000;stroke-width:0.264999;stroke-linecap:butt;stroke-linejoin:miter;stroke-miterlimit:4;stroke-dasharray:none;stroke-opacity:1" />
    <path
       inkscape:original-d="m 13.526611,23.799104 c -0.11389,-0.334018 -0.22783,-0.667988 -0.34182,-1.001911 -0.11782,-0.306489 -0.2357,-0.612981 -0.35362,-0.9194 -0.11389,-0.133625 -0.22784,-0.267224 -0.34183,-0.400765 -0.18854,-0.223997 -0.37714,-0.447961 -0.56578,-0.67187 -0.17283,-0.110059 -0.34571,-0.220075 -0.51864,-0.330041 -0.0825,-0.141504 -0.16497,-0.28294 -0.24753,-0.424339 0.0236,-0.05505 0.0472,-0.110061 0.0707,-0.165021 0.0413,-0.04518 0.0826,-0.08845 0.12377,-0.132606 0.15409,-0.146734 0.30848,-0.294726 0.46265,-0.442019 0.27179,-0.248689 0.5437,-0.497486 0.81548,-0.746159 0.19172,-0.186158 0.38345,-0.372335 0.5751,-0.558432 0.24864,-0.184756 0.49736,-0.369556 0.74597,-0.554264 0.17782,-0.111154 0.35566,-0.222308 0.53343,-0.333392 0.24723,-0.119476 0.49457,-0.238978 0.74179,-0.358396 0.0179,-0.0015 0.0358,-0.0029 0.0537,-0.0042 0.14599,-0.03727 0.29276,-0.0747 0.43907,-0.111978 0.11689,0.0039 0.23383,0.0078 0.35067,0.01179 0.0933,0.03137 0.18668,0.06282 0.27995,0.0943 0.14145,0.125646 0.28294,0.251413 0.42433,0.37719 0.0786,0.115858 0.15721,0.231768 0.23575,0.347722 0.0376,0.04647 0.0752,0.09297 0.11274,0.139529 -0.17778,0.319491 -0.35557,0.638955 -0.53343,0.958501 -0.20836,0.27505 -0.41669,0.550051 -0.62511,0.825146 -0.28339,0.591838 -0.56672,1.183495 -0.85015,1.775312 -0.27225,0.416733 -0.54449,0.833433 -0.81681,1.25022 -0.25677,0.458387 -0.51352,0.916699 -0.77036,1.375119 z"
       inkscape:path-effect="#path-effect856"
       inkscape:connector-curvature="0"
       id="path854"
       d="M 13.469636,23.632105 C 13.412662,23.465106 13.298722,23.131136 13.182819,22.81093 13.066917,22.490725 12.949034,22.184234 12.833133,21.964222 12.717232,21.74421 12.603281,21.610612 12.452015,21.431843 12.30075,21.253074 12.11215,21.02911 11.931423,20.862132 11.750696,20.695154 11.577815,20.58514 11.450102,20.459386 c -0.127714,-0.125754 -0.210209,-0.267175 -0.239666,-0.365419 -0.02946,-0.09824 -0.0059,-0.153267 0.02677,-0.203112 0.03265,-0.04984 0.07346,-0.09357 0.170984,-0.189131 0.09752,-0.09556 0.252154,-0.243298 0.465134,-0.441289 0.21298,-0.19799 0.484891,-0.446787 0.716639,-0.664205 0.231747,-0.217418 0.423479,-0.403593 0.643628,-0.589014 0.220149,-0.185422 0.468868,-0.370223 0.682084,-0.518152 0.213216,-0.147929 0.391058,-0.259079 0.603558,-0.374356 0.2125,-0.115277 0.45984,-0.23478 0.592399,-0.2952 0.132559,-0.06042 0.150459,-0.06182 0.232404,-0.08114 0.08195,-0.01932 0.228716,-0.05675 0.360311,-0.07344 0.131595,-0.01669 0.248534,-0.01276 0.353596,0.0049 0.105063,0.01767 0.198441,0.04913 0.315788,0.127689 0.117347,0.07856 0.258835,0.20433 0.368836,0.325133 0.110002,0.120802 0.188595,0.236724 0.246675,0.317931 0.05808,0.08121 0.09566,0.127721 0.02556,0.310721 -0.07011,0.183 -0.247895,0.502465 -0.440999,0.799765 -0.193104,0.297301 -0.401436,0.5723 -0.647347,1.005765 -0.245911,0.433465 -0.52924,1.025122 -0.807075,1.529399 -0.277836,0.504276 -0.550079,0.920974 -0.814626,1.35856 -0.264548,0.437587 -0.5213,0.895897 -0.649709,1.125113 -0.12841,0.229216 -0.12843,0.22918 -0.185405,0.06218 z"
       style="fill:#00e5b5;fill-opacity:1;fill-rule:evenodd;stroke:#000000;stroke-width:0.264999;stroke-linecap:butt;stroke-linejoin:miter;stroke-miterlimit:4;stroke-dasharray:none;stroke-opacity:1" />
    <path
       sodipodi:nodetypes="cccccccccccccccccccccccccccccc"
       inkscape:original-d="m 42.535283,32.592441 c -0.71397,0.705634 -1.427991,1.411314 -2.142051,2.11704 -0.589031,0.522343 -1.177941,1.04458 -1.76698,1.566942 -0.933519,0.444513 -1.86694,0.888997 -2.80049,1.333569 0.0834,-0.03894 0.166751,-0.07784 0.250049,-0.116687 -0.835649,0.174863 -1.67247,0.350012 -2.508779,0.525092 -0.95574,0.04441 -1.9114,0.08886 -2.86717,0.133356 -1.20578,-0.119518 -2.41149,-0.238977 -3.6173,-0.358394 -1.11408,-0.247322 -2.22813,-0.494581 -3.34226,-0.741799 -0.69152,-0.231125 -1.38304,-0.462185 -2.07463,-0.693209 -0.31429,-0.184719 -0.62861,-0.369377 -0.94298,-0.553998 -0.51468,-0.359571 -1.02936,-0.719066 -1.54412,-1.078526 -0.35554,-0.273121 -0.71111,-0.546187 -1.06674,-0.819211 -0.40662,-0.451897 -0.813271,-0.907661 -1.219971,-1.361419 -0.26713,-0.381164 -0.53431,-0.762285 -0.80153,-1.143357 -0.4125,-0.895852 -0.82506,-1.7917 -1.23766,-2.687478 -0.17086,-0.442058 -0.34178,-0.884087 -0.51274,-1.32606 -0.0196,-0.03148 -0.0392,-0.06291 -0.0589,-0.0943 -0.0196,0.04911 -0.0393,0.09831 -0.059,0.147529 0.43346,1.122373 0.86687,2.244792 1.30023,3.367261 0.38901,0.655637 0.77796,1.311293 1.16687,1.967013 0.61128,0.644525 1.222491,1.289068 1.833661,1.933673 1.00022,0.633399 2.0004,1.26684 3.00053,1.900332 0.84462,0.300003 1.68923,0.600059 2.53377,0.90016 0.72238,0.188868 1.44475,0.377796 2.16705,0.566767 1.04463,0.12219 2.08931,0.244441 3.13389,0.366731 1.60026,-4.8e-5 3.20061,-4.8e-5 4.800839,0 1.022421,-0.277865 2.044851,-0.555702 3.067211,-0.83348 0.91127,-0.633457 1.82259,-1.266939 2.73381,-1.900335 0.52233,-0.577893 1.044681,-1.155806 1.56695,-1.733638 0.31677,-0.25287 0.63346,-0.505669 0.950161,-0.758467 0.472358,-0.500134 0.944589,-1.000152 1.416918,-1.500265 0.30843,-0.350107 0.616762,-0.700103 0.925161,-1.050184 0.147301,-0.297323 0.29456,-0.594622 0.44175,-0.891823 -0.075,-0.05839 -0.15001,-0.116758 -0.225041,-0.175031 -0.0777,0.141643 -0.155548,0.283357 -0.233378,0.425076 -0.26389,0.361127 -0.52787,0.722368 -0.7918,1.083521 -0.25,0.266669 -0.500092,0.533435 -0.750142,0.800143 -0.241659,0.227772 -0.48338,0.455604 -0.725119,0.683453 z"
       inkscape:path-effect="#path-effect860"
       inkscape:connector-curvature="0"
       id="path858"
       d="m 42.178298,32.945258 c -0.356985,0.352817 -1.071004,1.058499 -1.72255,1.672534 -0.651545,0.614034 -1.240453,1.136273 -2.00173,1.619717 -0.761277,0.483444 -1.694697,0.92793 -2.119772,1.130745 -0.425076,0.202815 -0.341724,0.163918 -0.7179,0.231935 -0.376176,0.06802 -1.212997,0.243165 -2.109025,0.352913 -0.896027,0.109748 -1.851687,0.154197 -2.932466,0.116691 -1.080778,-0.03751 -2.286488,-0.156966 -3.446437,-0.340334 C 25.96847,37.546091 24.85442,37.298833 23.951591,37.059663 23.048763,36.820492 22.357244,36.58943 21.854297,36.381559 21.351349,36.173687 21.037031,35.989026 20.622503,35.716931 20.207974,35.444836 19.693292,35.085345 19.258142,34.769051 18.822993,34.452757 18.467421,34.179693 18.086781,33.81679 17.70614,33.453887 17.298513,32.998998 16.961596,32.581534 16.624679,32.16407 16.3575,31.782948 16.017638,31.14448 c -0.339861,-0.638467 -0.752424,-1.534314 -1.044155,-2.203233 -0.291731,-0.66892 -0.462648,-1.11095 -0.557923,-1.347674 -0.09527,-0.236723 -0.114896,-0.268139 -0.13453,-0.259307 -0.01963,0.0088 -0.03931,0.05804 0.167544,0.643851 0.206858,0.58581 0.640267,1.708229 1.051455,2.597287 0.411188,0.889057 0.800136,1.544714 1.300235,2.194843 0.500099,0.650128 1.111308,1.294674 1.917012,1.933678 0.805703,0.639004 1.805881,1.272448 2.728264,1.739195 0.922383,0.466747 1.766991,0.766807 2.550454,1.011292 0.783463,0.244484 1.505833,0.433412 2.389302,0.58899 0.88347,0.155578 1.92815,0.277827 3.250573,0.338947 1.322423,0.06112 2.922773,0.06112 4.234102,-0.0778 1.31133,-0.138917 2.33376,-0.416751 3.300573,-0.872381 0.966814,-0.455631 1.878135,-1.089111 2.594906,-1.694761 0.716771,-0.605649 1.23912,-1.183564 1.658643,-1.598912 0.419523,-0.415347 0.736213,-0.668146 1.130738,-1.044616 0.394525,-0.376471 0.866761,-0.876485 1.25714,-1.301596 0.390378,-0.42511 0.698709,-0.775108 0.92655,-1.098814 0.22784,-0.323706 0.375102,-0.621003 0.411193,-0.798776 0.03609,-0.177774 -0.03893,-0.236125 -0.115303,-0.19448 -0.07637,0.04164 -0.154185,0.183378 -0.32504,0.434803 -0.170854,0.251426 -0.434836,0.612665 -0.691798,0.926578 -0.256963,0.313913 -0.507057,0.580677 -0.752909,0.827919 -0.245851,0.247243 -0.487573,0.475074 -0.608442,0.588999 -0.12087,0.113924 -0.120939,0.113927 -0.477924,0.466744 z"
       style="fill:#cdcdcd;fill-opacity:1;fill-rule:evenodd;stroke:#000000;stroke-width:0.264999;stroke-linecap:butt;stroke-linejoin:miter;stroke-miterlimit:4;stroke-dasharray:none;stroke-opacity:1" />
    <path
       inkscape:original-d="m 25.507282,20.340285 c -0.49448,-0.07228 -0.98902,-0.144516 -1.48359,-0.216703 -0.26669,-0.144529 -0.53338,-0.288987 -0.80014,-0.433411 -0.18333,-0.211208 -0.36669,-0.422343 -0.5501,-0.633444 -0.13331,-0.244532 -0.26667,-0.489022 -0.40007,-0.733462 -0.2222,-0.627894 -0.44447,-1.255826 -0.66679,-1.883665 0.0945,-0.489003 0.18898,-0.977998 0.28339,-1.466925 0.17783,-0.177836 0.35566,-0.355666 0.53342,-0.533427 0.2667,-0.15559 0.53348,-0.311214 0.80015,-0.466749 0.30559,-0.06116 0.61126,-0.122292 0.91682,-0.183366 0.31671,-0.01116 0.6335,-0.02227 0.95017,-0.03334 0.28894,-0.01672 0.57793,-0.03339 0.86682,-0.05001 0.36116,-0.03894 0.7224,-0.07784 1.08352,-0.116687 0.11117,-0.02227 0.22231,-0.0445 0.3334,-0.06668 0.0556,0.177675 0.11117,0.355572 0.16669,0.533428 -0.42232,0.07776 -0.84455,0.155534 -1.26688,0.233374 -0.36118,-4.8e-5 -0.72231,-4.8e-5 -1.08353,0 -0.49455,0.127769 -0.98902,0.255553 -1.4836,0.383401 -0.24446,0.0722 -0.48892,0.144422 -0.73346,0.216704 -0.1778,0.188918 -0.35557,0.377798 -0.53342,0.566766 -0.0778,0.300084 -0.15554,0.600059 -0.23338,0.90016 0.0612,0.327849 0.12229,0.655623 0.18336,0.983505 0.0945,0.227797 0.18898,0.455588 0.28339,0.683454 0.27234,0.300037 0.54459,0.600059 0.81681,0.900158 0.41123,0.166651 0.82241,0.333345 1.23355,0.500088 0.25008,0.12219 0.50014,0.244441 0.75013,0.366732 0.13895,0.03329 0.27788,0.06663 0.41674,0.100017 0.0945,0.04439 0.18897,0.08886 0.28338,0.133357 0.0445,0.133281 0.089,0.266666 0.13336,0.40007 -0.13889,0.04441 -0.27778,0.08886 -0.41674,0.133358 -0.1278,-0.07231 -0.25555,-0.144517 -0.3834,-0.216706 z"
       inkscape:path-effect="#path-effect864"
       inkscape:connector-curvature="0"
       id="path862"
       d="m 25.260038,20.304171 c -0.247244,-0.03611 -0.741784,-0.10835 -1.122425,-0.216706 -0.380641,-0.108357 -0.647331,-0.252815 -0.872386,-0.430636 -0.225056,-0.177822 -0.408413,-0.388959 -0.566776,-0.616782 -0.158364,-0.227822 -0.291722,-0.472313 -0.469525,-0.908484 -0.177802,-0.436171 -0.40008,-1.064101 -0.463972,-1.622536 -0.06389,-0.558436 0.03058,-1.047433 0.166718,-1.38081 0.136142,-0.333376 0.313971,-0.511207 0.536204,-0.677877 0.222233,-0.16667 0.489015,-0.32229 0.775144,-0.430626 0.28613,-0.108335 0.591799,-0.16947 0.902932,-0.205582 0.311132,-0.03611 0.627921,-0.04723 0.930727,-0.06112 0.302806,-0.01389 0.591796,-0.03056 0.916822,-0.05835 0.325026,-0.02778 0.686266,-0.06668 0.922412,-0.09725 0.236146,-0.03056 0.347286,-0.05279 0.430592,0.02495 0.0833,0.07774 0.138894,0.255631 -0.04448,0.383449 -0.183371,0.127817 -0.6056,0.205597 -0.997358,0.244496 -0.391759,0.0389 -0.752889,0.0389 -1.18077,0.102801 -0.42788,0.0639 -0.92235,0.191685 -1.291871,0.291705 -0.369521,0.10002 -0.613979,0.172246 -0.825154,0.302831 -0.211176,0.130585 -0.388944,0.319466 -0.51677,0.563992 -0.127825,0.244526 -0.205596,0.544493 -0.213937,0.858479 -0.0083,0.313986 0.05277,0.641757 0.13056,0.919599 0.07779,0.277842 0.172251,0.505643 0.355634,0.769602 0.183383,0.26396 0.455629,0.563986 0.797368,0.797365 0.341739,0.23338 0.752919,0.400074 1.083526,0.544542 0.330607,0.144468 0.580666,0.26672 0.775144,0.344508 0.194478,0.07779 0.333407,0.111131 0.450078,0.150024 0.116672,0.03889 0.211147,0.08335 0.280583,0.172225 0.06943,0.08887 0.113902,0.222268 0.06669,0.311174 -0.04721,0.08891 -0.186102,0.133353 -0.319503,0.119461 -0.1334,-0.01389 -0.26115,-0.0861 -0.325059,-0.122221 -0.06391,-0.03612 -0.06391,-0.03612 -0.311153,-0.07223 z"
       style="fill:#82d1ff;fill-opacity:1;fill-rule:evenodd;stroke:#000000;stroke-width:0.264999;stroke-linecap:butt;stroke-linejoin:miter;stroke-miterlimit:4;stroke-dasharray:none;stroke-opacity:1" />
    <path
       inkscape:original-d="m 26.904962,17.474211 c 0.82515,0.02353 1.65025,0.0471 2.47531,0.07072 0.88797,0.172822 1.77598,0.34571 2.6639,0.518635 0.85655,0.644293 1.71312,1.288685 2.56961,1.933099 0.675839,0.707178 1.35164,1.414415 2.027391,2.121694 0.864449,1.092234 1.728838,2.184513 2.593189,3.276838 0.22007,0.903643 0.4401,1.807322 0.66008,2.711053 -0.204271,1.037264 -0.40858,2.074498 -0.612931,3.111819 -0.950838,0.738655 -1.901619,1.477279 -2.852499,2.215991 -0.62864,0.330012 -1.257261,0.660035 -1.88595,0.990124 -0.98231,0.109976 -1.96449,0.219979 -2.9468,0.330041 -1.19445,-0.282956 -2.38882,-0.565833 -3.58331,-0.848678 -0.60504,-0.40868 -1.2101,-0.817292 -1.81522,-1.225867 -0.46359,-0.282946 -0.92722,-0.565833 -1.39089,-0.848678 -0.59719,-0.290806 -1.19439,-0.581549 -1.79165,-0.872252 -0.25928,-0.01577 -0.51859,-0.03148 -0.77796,-0.04715 0.29085,0.353629 0.58155,0.707184 0.87225,1.060847 0.48726,0.267131 0.97446,0.534305 1.46162,0.801529 0.73082,0.361415 1.46165,0.7229 2.19241,1.084421 0.89585,0.345702 1.7917,0.691467 2.68748,1.037272 0.83299,0.172826 1.66597,0.34571 2.49888,0.518637 0.88013,0.0078 1.76027,0.01566 2.640341,0.02357 1.155118,-0.487225 2.310329,-0.974455 3.465428,-1.461611 0.542232,-0.597236 1.084471,-1.194483 1.626632,-1.791653 0.29078,-0.872228 0.581549,-1.744551 0.872249,-2.616756 -0.0628,-0.997964 -0.12568,-1.99601 -0.18859,-2.993945 -0.16497,-0.58938 -0.330001,-1.178766 -0.495069,-1.768078 -0.549982,-0.715099 -1.100082,-1.430226 -1.650201,-2.145268 -0.55788,-0.722988 -1.115809,-1.445941 -1.673781,-2.168844 -0.54216,-0.565826 -1.084379,-1.131616 -1.626629,-1.697355 -0.8172,-0.495107 -1.63445,-0.99017 -2.45174,-1.485184 -0.56575,-0.227938 -1.13152,-0.455818 -1.69735,-0.683658 -0.87225,-0.102206 -1.74446,-0.204357 -2.61676,-0.306466 -0.4636,0.102114 -0.92721,0.204263 -1.39089,0.306466 -0.17285,0.180711 -0.34571,0.361428 -0.51863,0.542211 0.0158,0.117857 0.0315,0.235697 0.0471,0.353615 0.20443,-0.01577 0.40868,-0.03148 0.61294,-0.04715 z"
       inkscape:path-effect="#path-effect868"
       inkscape:connector-curvature="0"
       id="path866"
       d="m 27.317536,17.485998 c 0.412575,0.01179 1.237675,0.03536 2.094185,0.133585 0.85651,0.09823 1.744521,0.271112 2.616741,0.67972 0.87222,0.408609 1.72879,1.053001 2.49495,1.728794 0.76616,0.675792 1.441962,1.383029 2.212059,2.282784 0.770097,0.899755 1.63449,1.992031 2.1767,2.990001 0.542211,0.99797 0.762236,1.90165 0.7701,2.872138 0.0079,0.970487 -0.196439,2.007722 -0.774015,2.895717 -0.577577,0.887995 -1.528358,1.626618 -2.318116,2.160986 -0.789758,0.534368 -1.418378,0.864393 -2.223881,1.084436 -0.805502,0.220043 -1.787682,0.330047 -2.876071,0.243607 -1.088389,-0.08644 -2.28276,-0.369317 -3.182536,-0.71508 -0.899777,-0.345764 -1.504837,-0.754377 -2.039191,-1.100136 -0.534354,-0.345759 -0.997981,-0.62865 -1.528408,-0.915475 -0.530428,-0.286824 -1.127628,-0.577566 -1.555886,-0.730803 -0.428258,-0.153236 -0.687568,-0.168952 -0.671853,2.4e-5 0.01572,0.168977 0.306415,0.522532 0.695406,0.832935 0.388991,0.310404 0.876191,0.577577 1.485183,0.891896 0.608992,0.314318 1.339822,0.675804 2.15313,1.029416 0.813307,0.353612 1.709157,0.699378 2.573547,0.958693 0.86439,0.259316 1.69737,0.432199 2.553896,0.522563 0.856525,0.09036 1.736666,0.09822 2.754266,-0.14145 1.0176,-0.239671 2.17281,-0.726903 3.021469,-1.269113 0.848659,-0.542209 1.390897,-1.139457 1.807352,-1.87416 0.416456,-0.734703 0.707228,-1.607025 0.821163,-2.542103 0.113934,-0.935077 0.05107,-1.933124 -0.06288,-2.726775 -0.113943,-0.793652 -0.278973,-1.383038 -0.6365,-2.035229 -0.357527,-0.65219 -0.907625,-1.367319 -1.461621,-2.086337 -0.553996,-0.719017 -1.111926,-1.441969 -1.66199,-2.086331 -0.550064,-0.644362 -1.092281,-1.210154 -1.772,-1.740571 -0.67972,-0.530417 -1.49697,-1.02548 -2.188485,-1.386955 -0.691515,-0.361475 -1.257284,-0.589355 -1.976316,-0.754381 -0.719032,-0.165026 -1.591242,-0.267176 -2.259185,-0.267182 -0.667944,-7e-6 -1.131553,0.102144 -1.449823,0.243583 -0.318269,0.141439 -0.491128,0.322157 -0.569738,0.471484 -0.07861,0.149326 -0.06291,0.267167 0.04716,0.318256 0.110068,0.05109 0.314318,0.03538 0.416447,0.02752 0.102128,-0.0079 0.102168,-0.0078 0.514742,0.0039 z"
       style="fill:#82d1ff;fill-opacity:1;fill-rule:evenodd;stroke:#000000;stroke-width:0.264999;stroke-linecap:butt;stroke-linejoin:miter;stroke-miterlimit:4;stroke-dasharray:none;stroke-opacity:1" />
    <path
       sodipodi:nodetypes="cccccccccccccccccccccccccccccccccccccccccccccccccccccccccccccccccc"
       inkscape:original-d="m 27.520132,48.403561 c -0.88748,-0.30839 -1.77524,-0.61682 -2.66297,-0.92517 -0.96681,-0.36678 -1.9336,-0.733496 -2.9005,-1.10019 -0.87791,-0.422354 -1.7558,-0.844629 -2.6338,-1.266891 -0.88902,-0.722413 -1.77804,-1.444741 -2.667131,-2.167046 -0.40003,-0.355671 -0.8001,-0.711284 -1.20022,-1.066855 -0.43336,-0.777965 -0.86677,-1.555875 -1.30023,-2.333744 -0.25555,-0.944639 -0.51115,-1.889268 -0.7668,-2.833831 -0.17775,-0.533455 -0.35557,-1.066903 -0.53343,-1.600282 -0.37777,-0.800145 -0.75564,-1.600329 -1.13353,-2.400421 -0.36667,-0.566801 -0.73341,-1.133581 -1.10019,-1.7003 -0.24444,-0.511239 -0.48893,-1.022451 -0.7334601,-1.533603 -0.13331,-0.444554 -0.26667,-0.889094 -0.40008,-1.333568 -0.0222,-0.477878 -0.0444,-0.955773 -0.0667,-1.433587 0.0445,-0.222288 0.0889,-0.44457 0.13335,-0.666784 0.17782,-0.188922 0.35567,-0.377892 0.5334301,-0.566765 0.30535,-0.211101 0.61081,-0.422261 0.91614,-0.633321 0.30646,-0.121826 0.61298,-0.243649 0.9194,-0.365403 0.19254,-0.141467 0.3851,-0.282939 0.57758,-0.424338 0.0786,-0.251438 0.1572,-0.502967 0.23574,-0.75438 0.0472,-0.275019 0.0943,-0.550117 0.14144,-0.825104 -0.0196,-0.165035 -0.0392,-0.330087 -0.0589,-0.495061 -0.0471,-0.113963 -0.0943,-0.227932 -0.14145,-0.341829 -0.30242,-0.298593 -0.60502,-0.597264 -0.90761,-0.895825 -0.0157,0.0078 -0.0314,0.01566 -0.0471,0.02357 -0.16105,-0.01969 -0.32213,-0.03934 -0.48327,-0.05894 -0.0353,0.149294 -0.0707,0.29856 -0.10609,0.447912 0.0433,0.157175 0.0865,0.314279 0.12966,0.471487 0.15331,0.188588 0.30651,0.377145 0.4597,0.565785 0.0708,0.153192 0.1415,0.30642 0.21217,0.4597 -0.0392,0.14535 -0.0785,0.290703 -0.11787,0.436127 -0.18469,0.133592 -0.36928,0.26713 -0.554,0.400764 -0.29472,0.161093 -0.58931,0.322137 -0.88404,0.483274 -0.27897,0.149288 -0.5578801,0.298563 -0.8368901,0.447914 -0.1768,0.259324 -0.35357,0.51859 -0.53042,0.777955 -0.10213,0.318273 -0.20426,0.636461 -0.30647,0.954762 -0.14142,0.491173 -0.28284,0.982219 -0.42434,1.473398 0.18474,0.514719 0.36938,1.029368 0.554,1.544122 0.0472,0.440031 0.0943,0.880065 0.14145,1.320165 0.1415,0.314309 0.28294,0.628605 0.42433,0.942975 0.19652,0.333946 0.39296,0.667893 0.58936,1.001911 0.3694001,0.797589 0.7387201,1.595151 1.1080001,2.392799 0.19258,0.29464 0.3851,0.589311 0.57757,0.884039 0.38511,1.104064 0.77014,2.208085 1.15515,3.312199 -0.0142,0.25191 -0.0284,0.503854 -0.0427,0.755852 0.28904,0.866941 0.57792,1.733592 0.86681,2.600457 0.77799,0.789006 1.55588,1.578007 2.33375,2.367081 0.98911,0.74453 1.978171,1.489104 2.967191,2.23373 1.03355,0.43336 2.06707,0.86677 3.10055,1.30022 1.07799,0.43336 2.15598,0.86678 3.2339,1.30023 0.54457,0.14442 1.08912,0.2889 1.63361,0.43341 0.25981,0.0152 0.51959,0.0305 0.77931,0.0458 1.13497,0.4292 2.26989,0.85844 3.40477,1.28773 1.2947,0.0277 2.58939,0.0555 3.884009,0.0833 1.044641,0.21665 2.089311,0.43336 3.133892,0.65011 1.750298,0.48337 3.500678,0.9668 5.250918,1.45026 -0.205539,-0.61682 -0.41112,-1.23357 -0.61677,-1.85033 -0.889048,-0.25566 -1.778048,-0.51125 -2.667138,-0.76679 -0.889032,-0.21121 -1.778042,-0.42235 -2.667132,-0.63345 -0.744559,-0.10007 -1.48911,-0.20008 -2.233729,-0.30005 -0.700111,-0.10008 -1.4002,-0.20009 -2.10037,-0.30006 -0.7668,-0.17786 -1.53356,-0.35566 -2.3004,-0.53342 -0.66677,-0.1223 -1.33353,-0.24454 -2.00036,-0.36674 -0.24445,-0.0445 -0.48893,-0.0889 -0.73346,-0.13336 -0.0152,-0.0153 -0.0458,-0.0458 -0.0458,-0.0458 -0.20361,-0.0812 -0.32782,-0.13063 -0.49176,-0.19586 z"
       inkscape:path-effect="#path-effect872"
       inkscape:connector-curvature="0"
       id="path870"
       d="m 27.076382,48.249393 c -0.443749,-0.154167 -1.33151,-0.462594 -2.25878,-0.800162 -0.92727,-0.337569 -1.89406,-0.704282 -2.816468,-1.098806 -0.922409,-0.394523 -1.800298,-0.816799 -2.683816,-1.389138 -0.883517,-0.57234 -1.772536,-1.294669 -2.417099,-1.833656 -0.644563,-0.538987 -1.044632,-0.894601 -1.46138,-1.461378 -0.416748,-0.566776 -0.850156,-1.344687 -1.194659,-2.20595 -0.344503,-0.861262 -0.600108,-1.80589 -0.816809,-2.544897 C 13.210669,36.1764 13.032851,35.642951 12.755035,34.976193 12.477219,34.309436 12.099354,33.50925 11.727074,32.825809 11.354793,32.142367 10.988054,31.575587 10.682446,31.036602 10.376838,30.497617 10.132347,29.986406 9.9434265,29.508548 9.7545064,29.03069 9.6211416,28.586152 9.5433493,28.124968 9.4655569,27.663784 9.4433221,27.18589 9.454435,26.835833 9.465548,26.485776 9.51,26.263505 9.6211279,26.057934 c 0.1111279,-0.205572 0.2889808,-0.394539 0.5305401,-0.59452 0.24156,-0.199981 0.547019,-0.411143 0.852916,-0.577578 0.305896,-0.166435 0.612417,-0.288257 0.861895,-0.419877 0.249477,-0.131619 0.442038,-0.27309 0.577563,-0.469516 0.135525,-0.196427 0.214126,-0.447955 0.27698,-0.711172 0.06286,-0.263217 0.11001,-0.538306 0.123762,-0.758315 0.01375,-0.220009 -0.0059,-0.385057 -0.03927,-0.524519 -0.03339,-0.139462 -0.08056,-0.253445 -0.255358,-0.459668 -0.174802,-0.206223 -0.477402,-0.504894 -0.636511,-0.650278 -0.159108,-0.145383 -0.17481,-0.137525 -0.263198,-0.143413 -0.08839,-0.0059 -0.249469,-0.02553 -0.347715,0.03928 -0.09825,0.06481 -0.133602,0.214091 -0.129676,0.367366 0.0039,0.153275 0.04713,0.310378 0.145374,0.483286 0.09824,0.172909 0.251446,0.361465 0.363425,0.53238 0.11198,0.170914 0.182697,0.324134 0.198424,0.473425 0.01573,0.14929 -0.02356,0.294647 -0.135553,0.434168 -0.111996,0.13952 -0.296588,0.273055 -0.536306,0.420424 -0.239717,0.147369 -0.534308,0.308411 -0.821158,0.463624 -0.28685,0.155214 -0.5657592,0.30449 -0.7936722,0.508816 -0.2279131,0.204327 -0.4046838,0.463593 -0.5441847,0.75241 -0.1395009,0.288816 -0.2416359,0.607003 -0.3634512,1.01174 -0.1218154,0.404738 -0.2632369,0.895783 -0.2416291,1.398749 0.021608,0.502965 0.2062529,1.017612 0.322165,1.494997 0.1159121,0.477386 0.1630593,0.917415 0.2573602,1.294631 0.094301,0.377216 0.2357327,0.691516 0.4046882,1.015677 0.1689555,0.324162 0.3653952,0.65811 0.6482958,1.223909 0.282901,0.565799 0.652218,1.363363 0.93315,1.909511 0.280932,0.546149 0.47345,0.840821 0.762243,1.540207 0.288793,0.699386 0.673827,1.803406 0.859241,2.481408 0.185415,0.678002 0.171182,0.929944 0.308556,1.489425 0.137374,0.559481 0.426254,1.426132 0.959698,2.254081 0.533444,0.82795 1.311335,1.61695 2.194829,2.383755 0.883494,0.766805 1.872555,1.511379 2.883848,2.100372 1.011294,0.588993 2.044815,1.022401 3.10055,1.455807 1.055735,0.433405 2.133726,0.866825 2.944974,1.155762 0.811247,0.288937 1.355799,0.433411 1.757953,0.513276 0.402155,0.07987 0.661937,0.09513 1.359273,0.317391 0.697336,0.222258 1.832255,0.6515 3.047055,0.880001 1.2148,0.228501 2.50949,0.256268 3.679115,0.378503 1.169625,0.122234 2.214295,0.338946 3.611734,0.689001 1.397439,0.350054 3.147816,0.833494 3.920145,0.766797 0.772328,-0.0667 0.566747,-0.683447 0.01942,-1.119638 -0.547328,-0.436191 -1.436329,-0.691775 -2.325388,-0.925152 -0.889059,-0.233378 -1.778069,-0.444519 -2.59489,-0.600106 -0.816821,-0.155586 -1.561372,-0.2556 -2.283738,-0.35562 -0.722366,-0.10002 -1.422454,-0.200035 -2.155941,-0.338953 -0.733487,-0.138917 -1.500247,-0.316715 -2.217051,-0.466744 -0.716804,-0.150029 -1.383564,-0.272271 -1.839204,-0.355622 -0.455639,-0.08335 -0.70011,-0.127801 -0.83,-0.157656 -0.12989,-0.02986 -0.145173,-0.04514 -0.16044,-0.06041 -0.203646,-0.08111 -0.327842,-0.130574 -0.409801,-0.163217 -0.08196,-0.03264 -0.08203,-0.03258 -0.525779,-0.186751 z"
       style="fill:#00866a;fill-opacity:1;fill-rule:evenodd;stroke:#000000;stroke-width:0.264999;stroke-linecap:butt;stroke-linejoin:miter;stroke-miterlimit:4;stroke-dasharray:none;stroke-opacity:1" />
    <path
       inkscape:original-d="m 30.676982,25.66148 c -0.94297,-0.149708 -1.88602,-0.299374 -2.82905,-0.44898 -0.75826,-0.204359 -1.51661,-0.408681 -2.27492,-0.612933 -0.53824,-0.165069 -1.07655,-0.330099 -1.61485,-0.495063 -0.38107,-0.163103 -0.76219,-0.326163 -1.14336,-0.489168 -0.53037,-0.349734 -1.0608,-0.699421 -1.59127,-1.04906 -0.69932,-0.652271 -1.39866,-1.304463 -2.09811,-1.956673 -0.19641,-0.40867 -0.39285,-0.817272 -0.58937,-1.225867 -0.1964,-0.502967 -0.39284,-1.005848 -0.58935,-1.50876 -0.10211,-0.424387 -0.20426,-0.848685 -0.30647,-1.273017 0.0315,-0.5344 0.0629,-1.068693 0.0943,-1.603056 0.2515,-0.510827 0.50293,-1.021539 0.75438,-1.532335 0.33009,-0.400813 0.66008,-0.801522 0.99012,-1.202294 0.40867,-0.243648 0.81723,-0.487217 1.22587,-0.730806 0.41653,-0.180783 0.83297,-0.361507 1.24944,-0.54221 0.56583,0.0471 1.13157,0.09425 1.69735,0.141446 0.6287,-0.03148 1.25727,-0.06291 1.88596,-0.0943 0.43224,-0.220076 0.86444,-0.440103 1.29659,-0.660084 0.16337,0.03669 0.32673,0.07344 0.49003,0.110228 0.48336,0.2055 0.96688,0.411136 1.45025,0.616775 0.73903,0.461123 1.47809,0.922336 2.21706,1.383577 1.07244,0.744514 2.14487,1.489103 3.217229,2.233726 0.70572,0.533376 1.411412,1.066807 2.11704,1.600281 0.555701,0.46114 1.111361,0.922338 1.666962,1.383577 0.288988,0.272221 0.577929,0.544493 0.86682,0.816811 0.794628,0.70563 1.58922,1.411312 2.383758,2.11704 0.37233,0.344457 0.74462,0.688962 1.116862,1.033515 0.183409,0.116639 0.366779,0.233326 0.550098,0.350061 0.12228,0.03885 0.24453,0.07774 0.366731,0.116688 0.183369,0.06661 0.366771,0.133309 0.55009,0.200034"
       inkscape:path-effect="#path-effect876"
       inkscape:connector-curvature="0"
       id="path874"
       d="m 30.676982,25.66148 c -0.942979,-0.149654 -1.886029,-0.299319 -2.736677,-0.476301 -0.850648,-0.176982 -1.608998,-0.381304 -2.257274,-0.565965 -0.648276,-0.18466 -1.186586,-0.349689 -1.646275,-0.513722 -0.459689,-0.164033 -0.84081,-0.32709 -1.296586,-0.583461 -0.455776,-0.256371 -0.986204,-0.606061 -1.601104,-1.107019 -0.614901,-0.500957 -1.314238,-1.153151 -1.762174,-1.683602 -0.447937,-0.53045 -0.644382,-0.939049 -0.840841,-1.394833 -0.196458,-0.455785 -0.392894,-0.958668 -0.542204,-1.422321 -0.14931,-0.463654 -0.251457,-0.887952 -0.286818,-1.367327 -0.03536,-0.479374 -0.0039,-1.013665 0.13753,-1.536262 0.14146,-0.522597 0.392888,-1.03331 0.683662,-1.489114 0.290775,-0.455803 0.620767,-0.85651 0.990128,-1.178712 0.369361,-0.322202 0.777923,-0.565767 1.190508,-0.777951 0.412584,-0.212184 0.829026,-0.392904 1.320168,-0.459692 0.491143,-0.06679 1.056883,-0.01964 1.654126,-0.01179 0.597243,0.0079 1.225813,-0.02357 1.756282,-0.149318 0.530469,-0.125745 0.962668,-0.345775 1.260417,-0.437401 0.297749,-0.09163 0.46111,-0.05488 0.784434,0.06627 0.323324,0.121146 0.806844,0.326782 1.418039,0.660162 0.611195,0.333379 1.350253,0.794595 2.255957,1.397472 0.905703,0.602877 1.978133,1.347466 2.867173,1.986463 0.889039,0.638998 1.594728,1.172432 2.225391,1.669739 0.630663,0.497306 1.186323,0.958504 1.608617,1.325232 0.422293,0.366728 0.711234,0.639 1.252995,1.127973 0.541762,0.488974 1.336352,1.194658 1.919787,1.719748 0.583434,0.525091 0.955723,0.869597 1.233554,1.100196 0.277831,0.230599 0.4612,0.347287 0.614009,0.425078 0.152808,0.07779 0.275056,0.116689 0.427839,0.169469 0.152783,0.05278 0.336188,0.119473 0.519527,0.186142"
       style="fill:none;fill-rule:evenodd;stroke:#000000;stroke-width:0.264999;stroke-linecap:butt;stroke-linejoin:miter;stroke-miterlimit:4;stroke-dasharray:none;stroke-opacity:1" />
    <path
       inkscape:original-d="m 26.857812,10.496197 c -0.1414,-0.290798 -0.28284,-0.5815486 -0.42434,-0.8722516 -0.21603,-0.282921 -0.43215,-0.565833 -0.64829,-0.848677 -0.38892,-0.377229 -0.77791,-0.754428 -1.16694,-1.13157 -0.25927,-0.377239 -0.51859,-0.754428 -0.77795,-1.13157 -0.32606,-0.479382 -0.65218,-0.95874 -0.97834,-1.438039 -0.27498,-0.530458 -0.55002,-1.060892 -0.8251,-1.591269 -0.0392,-0.08648 -0.0785,-0.172925 -0.11787,-0.259318"
       inkscape:path-effect="#path-effect892"
       inkscape:connector-curvature="0"
       id="path890"
       d="M 26.857812,10.496197 C 26.716356,10.205426 26.57491,9.9146785 26.396148,9.6278728 26.217386,9.3410671 26.001271,9.0581511 25.698742,8.7281203 25.396213,8.3980895 25.007224,8.0208901 24.683071,7.6436935 24.358917,7.2664969 24.0996,6.889306 23.80689,6.4610443 23.514179,6.0327825 23.188058,5.5534251 22.887487,5.0485428 22.586916,4.5436606 22.311876,4.0132262 22.154719,3.7048037 21.997562,3.3963813 21.958268,3.3099335 21.918982,3.2235024"
       style="fill:none;fill-rule:evenodd;stroke:#000000;stroke-width:0.264999;stroke-linecap:butt;stroke-linejoin:miter;stroke-miterlimit:4;stroke-dasharray:none;stroke-opacity:1" />
    <path
       sodipodi:nodetypes="ccccccccccccccc"
       inkscape:original-d="m 45.151523,29.67395 c 0.110058,-0.479391 0.22008,-0.958738 0.330049,-1.438037 0.137541,-0.447909 0.275079,-0.895872 0.412551,-1.343738 0.2554,-0.34969 0.510818,-0.69942 0.76616,-1.049061 0.392898,-0.385036 0.78587,-0.770143 1.178718,-1.155144 0.498981,-0.216119 0.99803,-0.432244 1.496981,-0.648295 0.565761,-0.07076 1.13161,-0.141495 1.69735,-0.212171 0.0472,0.113886 0.0943,0.22784 0.141451,0.341829 -0.157152,0.235747 -0.31428,0.471441 -0.47149,0.707232 -0.28684,0.239681 -0.573601,0.479298 -0.86047,0.719018 -0.365421,0.267177 -0.73075,0.534307 -1.0962,0.801529 -0.475441,0.400776 -0.950791,0.801483 -1.42625,1.202294 -0.44006,0.530432 -0.88007,1.0608 -1.32017,1.59127 -0.282872,0.16106 -0.565682,0.322103 -0.84868,0.483274 5e-5,-4.5e-5 5e-5,-4.5e-5 0,0 z"
       inkscape:path-effect="#path-effect896"
       inkscape:connector-curvature="0"
       id="path894"
       d="m 45.206537,29.434251 c 0.05501,-0.239699 0.165031,-0.719047 0.288792,-1.182651 0.123761,-0.463603 0.261294,-0.911568 0.45774,-1.310344 0.196447,-0.398776 0.451865,-0.748506 0.775987,-1.115843 0.324123,-0.367337 0.717092,-0.752447 1.163014,-1.052993 0.445922,-0.300547 0.944972,-0.51667 1.477325,-0.660068 0.532353,-0.143398 1.098202,-0.21413 1.404638,-0.192533 0.306436,0.0216 0.353583,0.135531 0.298586,0.310393 -0.055,0.174862 -0.212127,0.410555 -0.434145,0.648296 -0.222018,0.237741 -0.508777,0.47736 -0.834921,0.730811 -0.326144,0.253451 -0.691476,0.520577 -1.111921,0.854576 -0.420445,0.333998 -0.895795,0.734706 -1.353558,1.200324 -0.457763,0.465617 -0.897774,0.995985 -1.259254,1.341758 -0.361481,0.345773 -0.64429,0.506817 -0.785794,0.587395 -0.141503,0.08058 -0.141503,0.08058 -0.08649,-0.159121 z"
       style="fill:#e0e0e0;fill-opacity:0.48;fill-rule:evenodd;stroke:#000000;stroke-width:0.264999;stroke-linecap:butt;stroke-linejoin:miter;stroke-miterlimit:4;stroke-dasharray:none;stroke-opacity:1" />
  </g>
</svg>
